<mxfile host="app.diagrams.net" agent="Mozilla/5.0 (Windows NT 10.0; Win64; x64) AppleWebKit/537.36 (KHTML, like Gecko) Chrome/131.0.0.0 Safari/537.36" version="26.0.3">
  <diagram name="Страница — 1" id="GZ1Qv-VN3I4F29BX2_Vn">
    <mxGraphModel dx="1690" dy="1374" grid="0" gridSize="10" guides="1" tooltips="1" connect="1" arrows="1" fold="1" page="0" pageScale="1" pageWidth="827" pageHeight="1169" math="0" shadow="0">
      <root>
        <mxCell id="0" />
        <mxCell id="1" parent="0" />
        <mxCell id="PbWc0i2gUhoh4MNazgj7-1" value="Покупатель" style="swimlane;fontStyle=1;align=center;verticalAlign=middle;childLayout=stackLayout;horizontal=1;startSize=29;horizontalStack=0;resizeParent=1;resizeParentMax=0;resizeLast=0;collapsible=0;marginBottom=0;html=1;whiteSpace=wrap;" parent="1" vertex="1">
          <mxGeometry x="25" y="-490" width="140" height="54" as="geometry" />
        </mxCell>
        <mxCell id="PbWc0i2gUhoh4MNazgj7-2" value="КофейныйАппарат" style="swimlane;fontStyle=1;align=center;verticalAlign=middle;childLayout=stackLayout;horizontal=1;startSize=29;horizontalStack=0;resizeParent=1;resizeParentMax=0;resizeLast=0;collapsible=0;marginBottom=0;html=1;whiteSpace=wrap;" parent="1" vertex="1">
          <mxGeometry x="185" y="-420" width="140" height="54" as="geometry" />
        </mxCell>
        <mxCell id="PbWc0i2gUhoh4MNazgj7-3" value="Напиток" style="swimlane;fontStyle=1;align=center;verticalAlign=middle;childLayout=stackLayout;horizontal=1;startSize=29;horizontalStack=0;resizeParent=1;resizeParentMax=0;resizeLast=0;collapsible=0;marginBottom=0;html=1;whiteSpace=wrap;" parent="1" vertex="1">
          <mxGeometry x="345" y="-490" width="140" height="54" as="geometry" />
        </mxCell>
        <mxCell id="PbWc0i2gUhoh4MNazgj7-4" value="Модификатор" style="swimlane;fontStyle=1;align=center;verticalAlign=middle;childLayout=stackLayout;horizontal=1;startSize=29;horizontalStack=0;resizeParent=1;resizeParentMax=0;resizeLast=0;collapsible=0;marginBottom=0;html=1;whiteSpace=wrap;" parent="1" vertex="1">
          <mxGeometry x="505" y="-490" width="140" height="54" as="geometry" />
        </mxCell>
        <mxCell id="PbWc0i2gUhoh4MNazgj7-5" value="Рецептура" style="swimlane;fontStyle=1;align=center;verticalAlign=middle;childLayout=stackLayout;horizontal=1;startSize=29;horizontalStack=0;resizeParent=1;resizeParentMax=0;resizeLast=0;collapsible=0;marginBottom=0;html=1;whiteSpace=wrap;" parent="1" vertex="1">
          <mxGeometry x="345" y="-420" width="140" height="54" as="geometry" />
        </mxCell>
        <mxCell id="PbWc0i2gUhoh4MNazgj7-7" value="Ингредиент" style="swimlane;fontStyle=1;align=center;verticalAlign=middle;childLayout=stackLayout;horizontal=1;startSize=29;horizontalStack=0;resizeParent=1;resizeParentMax=0;resizeLast=0;collapsible=0;marginBottom=0;html=1;whiteSpace=wrap;" parent="1" vertex="1">
          <mxGeometry x="345" y="-350" width="140" height="59" as="geometry" />
        </mxCell>
        <mxCell id="PbWc0i2gUhoh4MNazgj7-8" value="СистемаВвода" style="swimlane;fontStyle=1;align=center;verticalAlign=middle;childLayout=stackLayout;horizontal=1;startSize=29;horizontalStack=0;resizeParent=1;resizeParentMax=0;resizeLast=0;collapsible=0;marginBottom=0;html=1;whiteSpace=wrap;" parent="1" vertex="1">
          <mxGeometry x="185" y="-490" width="140" height="54" as="geometry" />
        </mxCell>
        <mxCell id="PbWc0i2gUhoh4MNazgj7-9" value="КомандаКофейномуАппарату" style="swimlane;fontStyle=1;align=center;verticalAlign=middle;childLayout=stackLayout;horizontal=1;startSize=29;horizontalStack=0;resizeParent=1;resizeParentMax=0;resizeLast=0;collapsible=0;marginBottom=0;html=1;whiteSpace=wrap;" parent="1" vertex="1">
          <mxGeometry x="125" y="-350" width="200" height="60" as="geometry" />
        </mxCell>
        <mxCell id="PbWc0i2gUhoh4MNazgj7-133" value="" style="endArrow=none;startArrow=none;endFill=0;startFill=0;endSize=8;html=1;verticalAlign=bottom;dashed=1;labelBackgroundColor=none;dashPattern=10 10;rounded=0;" parent="1" edge="1">
          <mxGeometry x="-0.025" y="10" width="160" relative="1" as="geometry">
            <mxPoint x="30" y="1753" as="sourcePoint" />
            <mxPoint x="830" y="1753" as="targetPoint" />
            <mxPoint as="offset" />
          </mxGeometry>
        </mxCell>
        <mxCell id="cphryxpFYoay0DcUjreO-1" value="" style="endArrow=open;startArrow=none;endFill=0;startFill=0;endSize=8;html=1;verticalAlign=bottom;labelBackgroundColor=none;strokeWidth=1;rounded=0;" parent="1" edge="1">
          <mxGeometry width="160" relative="1" as="geometry">
            <mxPoint x="220" y="1863" as="sourcePoint" />
            <mxPoint x="510" y="1863" as="targetPoint" />
          </mxGeometry>
        </mxCell>
        <mxCell id="cphryxpFYoay0DcUjreO-2" value="ВыбратьНапиток()" style="edgeLabel;html=1;align=center;verticalAlign=middle;resizable=0;points=[];labelBackgroundColor=#FFCCCC;" parent="cphryxpFYoay0DcUjreO-1" vertex="1" connectable="0">
          <mxGeometry x="0.3199" relative="1" as="geometry">
            <mxPoint x="-35" y="-10" as="offset" />
          </mxGeometry>
        </mxCell>
        <mxCell id="cphryxpFYoay0DcUjreO-3" value="" style="endArrow=open;startArrow=none;endFill=0;startFill=0;endSize=8;html=1;verticalAlign=bottom;labelBackgroundColor=none;strokeWidth=1;rounded=0;" parent="1" edge="1">
          <mxGeometry width="160" relative="1" as="geometry">
            <mxPoint x="220" y="1903" as="sourcePoint" />
            <mxPoint x="510" y="1903" as="targetPoint" />
          </mxGeometry>
        </mxCell>
        <mxCell id="cphryxpFYoay0DcUjreO-4" value="ВыбратьМодификаторы(Модификаторы)" style="edgeLabel;html=1;align=center;verticalAlign=middle;resizable=0;points=[];labelBackgroundColor=#FFCCCC;" parent="cphryxpFYoay0DcUjreO-3" vertex="1" connectable="0">
          <mxGeometry x="0.3199" relative="1" as="geometry">
            <mxPoint x="-35" y="-10" as="offset" />
          </mxGeometry>
        </mxCell>
        <mxCell id="cphryxpFYoay0DcUjreO-5" value="" style="endArrow=open;startArrow=none;endFill=0;startFill=0;endSize=8;html=1;verticalAlign=bottom;labelBackgroundColor=none;strokeWidth=1;rounded=0;" parent="1" edge="1">
          <mxGeometry width="160" relative="1" as="geometry">
            <mxPoint x="220" y="1943" as="sourcePoint" />
            <mxPoint x="510" y="1943" as="targetPoint" />
          </mxGeometry>
        </mxCell>
        <mxCell id="cphryxpFYoay0DcUjreO-6" value="ПриготовитьНапиток()" style="edgeLabel;html=1;align=center;verticalAlign=middle;resizable=0;points=[];labelBackgroundColor=#FFCCCC;" parent="cphryxpFYoay0DcUjreO-5" vertex="1" connectable="0">
          <mxGeometry x="0.3199" relative="1" as="geometry">
            <mxPoint x="-35" y="-10" as="offset" />
          </mxGeometry>
        </mxCell>
        <mxCell id="cphryxpFYoay0DcUjreO-7" value="" style="endArrow=open;startArrow=none;endFill=0;startFill=0;endSize=8;html=1;verticalAlign=bottom;labelBackgroundColor=none;strokeWidth=1;rounded=0;" parent="1" edge="1">
          <mxGeometry width="160" relative="1" as="geometry">
            <mxPoint x="220" y="2063" as="sourcePoint" />
            <mxPoint x="510" y="2063" as="targetPoint" />
          </mxGeometry>
        </mxCell>
        <mxCell id="cphryxpFYoay0DcUjreO-8" value="ЗабратьКофе()" style="edgeLabel;html=1;align=center;verticalAlign=middle;resizable=0;points=[];" parent="cphryxpFYoay0DcUjreO-7" vertex="1" connectable="0">
          <mxGeometry x="0.3199" relative="1" as="geometry">
            <mxPoint x="-35" y="-10" as="offset" />
          </mxGeometry>
        </mxCell>
        <mxCell id="cphryxpFYoay0DcUjreO-9" value="Состояние &quot;в процессе&quot;" style="endArrow=open;startArrow=none;endFill=0;startFill=0;endSize=8;html=1;verticalAlign=bottom;dashed=1;labelBackgroundColor=none;rounded=0;" parent="1" edge="1">
          <mxGeometry width="160" relative="1" as="geometry">
            <mxPoint x="510" y="1983" as="sourcePoint" />
            <mxPoint x="220" y="1983" as="targetPoint" />
          </mxGeometry>
        </mxCell>
        <mxCell id="cphryxpFYoay0DcUjreO-10" value="Состояние &quot;готово&quot;" style="endArrow=open;startArrow=none;endFill=0;startFill=0;endSize=8;html=1;verticalAlign=bottom;dashed=1;labelBackgroundColor=none;rounded=0;" parent="1" edge="1">
          <mxGeometry width="160" relative="1" as="geometry">
            <mxPoint x="510" y="2023" as="sourcePoint" />
            <mxPoint x="220" y="2023" as="targetPoint" />
          </mxGeometry>
        </mxCell>
        <mxCell id="cphryxpFYoay0DcUjreO-11" value="" style="endArrow=none;startArrow=none;endFill=0;startFill=0;endSize=8;html=1;verticalAlign=bottom;dashed=1;labelBackgroundColor=none;dashPattern=10 10;rounded=0;" parent="1" edge="1">
          <mxGeometry x="-0.025" y="10" width="160" relative="1" as="geometry">
            <mxPoint x="30" y="2133" as="sourcePoint" />
            <mxPoint x="830" y="2133" as="targetPoint" />
            <mxPoint as="offset" />
          </mxGeometry>
        </mxCell>
        <mxCell id="cphryxpFYoay0DcUjreO-12" value="&lt;span style=&quot;font-weight: 700;&quot;&gt;Покупатель&lt;/span&gt;" style="shape=umlLifeline;perimeter=lifelinePerimeter;whiteSpace=wrap;html=1;container=1;dropTarget=0;collapsible=0;recursiveResize=0;outlineConnect=0;portConstraint=eastwest;newEdgeStyle={&quot;edgeStyle&quot;:&quot;elbowEdgeStyle&quot;,&quot;elbow&quot;:&quot;vertical&quot;,&quot;curved&quot;:0,&quot;rounded&quot;:0};" parent="1" vertex="1">
          <mxGeometry x="167" y="2160" width="100" height="240" as="geometry" />
        </mxCell>
        <mxCell id="cphryxpFYoay0DcUjreO-13" value="SYSTEM" style="shape=umlLifeline;perimeter=lifelinePerimeter;whiteSpace=wrap;html=1;container=1;dropTarget=0;collapsible=0;recursiveResize=0;outlineConnect=0;portConstraint=eastwest;newEdgeStyle={&quot;edgeStyle&quot;:&quot;elbowEdgeStyle&quot;,&quot;elbow&quot;:&quot;vertical&quot;,&quot;curved&quot;:0,&quot;rounded&quot;:0};fontStyle=1;" parent="1" vertex="1">
          <mxGeometry x="577" y="2160" width="100" height="240" as="geometry" />
        </mxCell>
        <mxCell id="cphryxpFYoay0DcUjreO-14" value="" style="endArrow=open;startArrow=none;endFill=0;startFill=0;endSize=8;html=1;verticalAlign=bottom;labelBackgroundColor=none;strokeWidth=1;rounded=0;" parent="1" target="cphryxpFYoay0DcUjreO-13" edge="1">
          <mxGeometry width="160" relative="1" as="geometry">
            <mxPoint x="217" y="2240" as="sourcePoint" />
            <mxPoint x="507" y="2240" as="targetPoint" />
          </mxGeometry>
        </mxCell>
        <mxCell id="cphryxpFYoay0DcUjreO-15" value="ПриготовитьНапиток(Напиток&lt;span style=&quot;font-size: 12px; text-wrap: wrap;&quot;&gt;Название&lt;/span&gt;, Модификаторы&lt;span style=&quot;font-size: 12px; text-wrap: wrap;&quot;&gt;Названия&lt;/span&gt;)" style="edgeLabel;html=1;align=center;verticalAlign=middle;resizable=0;points=[];labelBackgroundColor=#FFE599;" parent="cphryxpFYoay0DcUjreO-14" vertex="1" connectable="0">
          <mxGeometry x="0.3199" relative="1" as="geometry">
            <mxPoint x="-75" y="-10" as="offset" />
          </mxGeometry>
        </mxCell>
        <mxCell id="cphryxpFYoay0DcUjreO-16" value="" style="endArrow=open;startArrow=none;endFill=0;startFill=0;endSize=8;html=1;verticalAlign=bottom;labelBackgroundColor=none;strokeWidth=1;rounded=0;" parent="1" target="cphryxpFYoay0DcUjreO-13" edge="1">
          <mxGeometry width="160" relative="1" as="geometry">
            <mxPoint x="217" y="2360" as="sourcePoint" />
            <mxPoint x="507" y="2360" as="targetPoint" />
          </mxGeometry>
        </mxCell>
        <mxCell id="cphryxpFYoay0DcUjreO-17" value="ЗабратьКофе()" style="edgeLabel;html=1;align=center;verticalAlign=middle;resizable=0;points=[];" parent="cphryxpFYoay0DcUjreO-16" vertex="1" connectable="0">
          <mxGeometry x="0.3199" relative="1" as="geometry">
            <mxPoint x="-90" y="-10" as="offset" />
          </mxGeometry>
        </mxCell>
        <mxCell id="cphryxpFYoay0DcUjreO-18" value="Состояние &quot;в процессе&quot;" style="endArrow=open;startArrow=none;endFill=0;startFill=0;endSize=8;html=1;verticalAlign=bottom;dashed=1;labelBackgroundColor=none;rounded=0;" parent="1" source="cphryxpFYoay0DcUjreO-13" edge="1">
          <mxGeometry x="0.1209" width="160" relative="1" as="geometry">
            <mxPoint x="507" y="2280" as="sourcePoint" />
            <mxPoint x="217" y="2280" as="targetPoint" />
            <mxPoint x="1" as="offset" />
          </mxGeometry>
        </mxCell>
        <mxCell id="cphryxpFYoay0DcUjreO-19" value="Состояние &quot;готово&quot;" style="endArrow=open;startArrow=none;endFill=0;startFill=0;endSize=8;html=1;verticalAlign=bottom;dashed=1;labelBackgroundColor=none;rounded=0;" parent="1" source="cphryxpFYoay0DcUjreO-13" edge="1">
          <mxGeometry x="0.1209" width="160" relative="1" as="geometry">
            <mxPoint x="507" y="2320" as="sourcePoint" />
            <mxPoint x="217" y="2320" as="targetPoint" />
            <mxPoint x="1" as="offset" />
          </mxGeometry>
        </mxCell>
        <mxCell id="cphryxpFYoay0DcUjreO-20" value="Покупатель" style="swimlane;fontStyle=1;align=center;verticalAlign=middle;childLayout=stackLayout;horizontal=1;startSize=29;horizontalStack=0;resizeParent=1;resizeParentMax=0;resizeLast=0;collapsible=0;marginBottom=0;html=1;whiteSpace=wrap;" parent="1" vertex="1">
          <mxGeometry x="25" y="-490" width="140" height="54" as="geometry" />
        </mxCell>
        <mxCell id="cphryxpFYoay0DcUjreO-21" value="КофейныйАппарат" style="swimlane;fontStyle=1;align=center;verticalAlign=middle;childLayout=stackLayout;horizontal=1;startSize=29;horizontalStack=0;resizeParent=1;resizeParentMax=0;resizeLast=0;collapsible=0;marginBottom=0;html=1;whiteSpace=wrap;" parent="1" vertex="1">
          <mxGeometry x="185" y="-420" width="140" height="54" as="geometry" />
        </mxCell>
        <mxCell id="cphryxpFYoay0DcUjreO-22" value="Напиток" style="swimlane;fontStyle=1;align=center;verticalAlign=middle;childLayout=stackLayout;horizontal=1;startSize=29;horizontalStack=0;resizeParent=1;resizeParentMax=0;resizeLast=0;collapsible=0;marginBottom=0;html=1;whiteSpace=wrap;" parent="1" vertex="1">
          <mxGeometry x="345" y="-490" width="140" height="54" as="geometry" />
        </mxCell>
        <mxCell id="cphryxpFYoay0DcUjreO-23" value="Модификатор" style="swimlane;fontStyle=1;align=center;verticalAlign=middle;childLayout=stackLayout;horizontal=1;startSize=29;horizontalStack=0;resizeParent=1;resizeParentMax=0;resizeLast=0;collapsible=0;marginBottom=0;html=1;whiteSpace=wrap;" parent="1" vertex="1">
          <mxGeometry x="505" y="-490" width="140" height="54" as="geometry" />
        </mxCell>
        <mxCell id="cphryxpFYoay0DcUjreO-24" value="Рецептура" style="swimlane;fontStyle=1;align=center;verticalAlign=middle;childLayout=stackLayout;horizontal=1;startSize=29;horizontalStack=0;resizeParent=1;resizeParentMax=0;resizeLast=0;collapsible=0;marginBottom=0;html=1;whiteSpace=wrap;" parent="1" vertex="1">
          <mxGeometry x="345" y="-420" width="140" height="54" as="geometry" />
        </mxCell>
        <mxCell id="cphryxpFYoay0DcUjreO-26" value="Ингредиент" style="swimlane;fontStyle=1;align=center;verticalAlign=middle;childLayout=stackLayout;horizontal=1;startSize=29;horizontalStack=0;resizeParent=1;resizeParentMax=0;resizeLast=0;collapsible=0;marginBottom=0;html=1;whiteSpace=wrap;" parent="1" vertex="1">
          <mxGeometry x="345" y="-350" width="140" height="59" as="geometry" />
        </mxCell>
        <mxCell id="cphryxpFYoay0DcUjreO-27" value="СистемаВвода" style="swimlane;fontStyle=1;align=center;verticalAlign=middle;childLayout=stackLayout;horizontal=1;startSize=29;horizontalStack=0;resizeParent=1;resizeParentMax=0;resizeLast=0;collapsible=0;marginBottom=0;html=1;whiteSpace=wrap;" parent="1" vertex="1">
          <mxGeometry x="185" y="-490" width="140" height="54" as="geometry" />
        </mxCell>
        <mxCell id="cphryxpFYoay0DcUjreO-28" value="КомандаКофейномуАппарату" style="swimlane;fontStyle=1;align=center;verticalAlign=middle;childLayout=stackLayout;horizontal=1;startSize=29;horizontalStack=0;resizeParent=1;resizeParentMax=0;resizeLast=0;collapsible=0;marginBottom=0;html=1;whiteSpace=wrap;" parent="1" vertex="1">
          <mxGeometry x="125" y="-350" width="200" height="60" as="geometry" />
        </mxCell>
        <mxCell id="cphryxpFYoay0DcUjreO-152" value="" style="endArrow=none;startArrow=none;endFill=0;startFill=0;endSize=8;html=1;verticalAlign=bottom;dashed=1;labelBackgroundColor=none;dashPattern=10 10;rounded=0;" parent="1" edge="1">
          <mxGeometry x="-0.025" y="10" width="160" relative="1" as="geometry">
            <mxPoint x="30" y="1753" as="sourcePoint" />
            <mxPoint x="830" y="1753" as="targetPoint" />
            <mxPoint as="offset" />
          </mxGeometry>
        </mxCell>
        <mxCell id="cphryxpFYoay0DcUjreO-160" value="&lt;span style=&quot;font-weight: 700;&quot;&gt;Покупатель&lt;/span&gt;" style="shape=umlLifeline;perimeter=lifelinePerimeter;whiteSpace=wrap;html=1;container=1;dropTarget=0;collapsible=0;recursiveResize=0;outlineConnect=0;portConstraint=eastwest;newEdgeStyle={&quot;edgeStyle&quot;:&quot;elbowEdgeStyle&quot;,&quot;elbow&quot;:&quot;vertical&quot;,&quot;curved&quot;:0,&quot;rounded&quot;:0};" parent="1" vertex="1">
          <mxGeometry x="170" y="1773" width="100" height="300" as="geometry" />
        </mxCell>
        <mxCell id="cphryxpFYoay0DcUjreO-161" value="SYSTEM" style="shape=umlLifeline;perimeter=lifelinePerimeter;whiteSpace=wrap;html=1;container=1;dropTarget=0;collapsible=0;recursiveResize=0;outlineConnect=0;portConstraint=eastwest;newEdgeStyle={&quot;edgeStyle&quot;:&quot;elbowEdgeStyle&quot;,&quot;elbow&quot;:&quot;vertical&quot;,&quot;curved&quot;:0,&quot;rounded&quot;:0};fontStyle=1" parent="1" vertex="1">
          <mxGeometry x="460" y="1773" width="100" height="300" as="geometry" />
        </mxCell>
        <mxCell id="cphryxpFYoay0DcUjreO-162" value="" style="endArrow=open;startArrow=none;endFill=0;startFill=0;endSize=8;html=1;verticalAlign=bottom;labelBackgroundColor=none;strokeWidth=1;rounded=0;" parent="1" target="cphryxpFYoay0DcUjreO-161" edge="1">
          <mxGeometry width="160" relative="1" as="geometry">
            <mxPoint x="220" y="1863" as="sourcePoint" />
            <mxPoint x="380" y="1863" as="targetPoint" />
          </mxGeometry>
        </mxCell>
        <mxCell id="cphryxpFYoay0DcUjreO-163" value="ВыбратьНапиток()" style="edgeLabel;html=1;align=center;verticalAlign=middle;resizable=0;points=[];labelBackgroundColor=#FFCCCC;" parent="cphryxpFYoay0DcUjreO-162" vertex="1" connectable="0">
          <mxGeometry x="0.3199" relative="1" as="geometry">
            <mxPoint x="-35" y="-10" as="offset" />
          </mxGeometry>
        </mxCell>
        <mxCell id="cphryxpFYoay0DcUjreO-164" value="" style="endArrow=open;startArrow=none;endFill=0;startFill=0;endSize=8;html=1;verticalAlign=bottom;labelBackgroundColor=none;strokeWidth=1;rounded=0;" parent="1" target="cphryxpFYoay0DcUjreO-161" edge="1">
          <mxGeometry width="160" relative="1" as="geometry">
            <mxPoint x="220" y="1903" as="sourcePoint" />
            <mxPoint x="440" y="1903" as="targetPoint" />
          </mxGeometry>
        </mxCell>
        <mxCell id="cphryxpFYoay0DcUjreO-165" value="ВыбратьМодификаторы(Модификаторы)" style="edgeLabel;html=1;align=center;verticalAlign=middle;resizable=0;points=[];labelBackgroundColor=#FFCCCC;" parent="cphryxpFYoay0DcUjreO-164" vertex="1" connectable="0">
          <mxGeometry x="0.3199" relative="1" as="geometry">
            <mxPoint x="-35" y="-10" as="offset" />
          </mxGeometry>
        </mxCell>
        <mxCell id="cphryxpFYoay0DcUjreO-166" value="" style="endArrow=open;startArrow=none;endFill=0;startFill=0;endSize=8;html=1;verticalAlign=bottom;labelBackgroundColor=none;strokeWidth=1;rounded=0;" parent="1" edge="1">
          <mxGeometry width="160" relative="1" as="geometry">
            <mxPoint x="220" y="1943" as="sourcePoint" />
            <mxPoint x="510" y="1943" as="targetPoint" />
          </mxGeometry>
        </mxCell>
        <mxCell id="cphryxpFYoay0DcUjreO-167" value="ПриготовитьНапиток()" style="edgeLabel;html=1;align=center;verticalAlign=middle;resizable=0;points=[];labelBackgroundColor=#FFCCCC;" parent="cphryxpFYoay0DcUjreO-166" vertex="1" connectable="0">
          <mxGeometry x="0.3199" relative="1" as="geometry">
            <mxPoint x="-35" y="-10" as="offset" />
          </mxGeometry>
        </mxCell>
        <mxCell id="cphryxpFYoay0DcUjreO-168" value="" style="endArrow=open;startArrow=none;endFill=0;startFill=0;endSize=8;html=1;verticalAlign=bottom;labelBackgroundColor=none;strokeWidth=1;rounded=0;" parent="1" edge="1">
          <mxGeometry width="160" relative="1" as="geometry">
            <mxPoint x="220" y="2063" as="sourcePoint" />
            <mxPoint x="510" y="2063" as="targetPoint" />
          </mxGeometry>
        </mxCell>
        <mxCell id="cphryxpFYoay0DcUjreO-169" value="ЗабратьКофе()" style="edgeLabel;html=1;align=center;verticalAlign=middle;resizable=0;points=[];" parent="cphryxpFYoay0DcUjreO-168" vertex="1" connectable="0">
          <mxGeometry x="0.3199" relative="1" as="geometry">
            <mxPoint x="-35" y="-10" as="offset" />
          </mxGeometry>
        </mxCell>
        <mxCell id="cphryxpFYoay0DcUjreO-170" value="Состояние &quot;в процессе&quot;" style="endArrow=open;startArrow=none;endFill=0;startFill=0;endSize=8;html=1;verticalAlign=bottom;dashed=1;labelBackgroundColor=none;rounded=0;" parent="1" edge="1">
          <mxGeometry width="160" relative="1" as="geometry">
            <mxPoint x="510" y="1983" as="sourcePoint" />
            <mxPoint x="220" y="1983" as="targetPoint" />
          </mxGeometry>
        </mxCell>
        <mxCell id="cphryxpFYoay0DcUjreO-171" value="Состояние &quot;готово&quot;" style="endArrow=open;startArrow=none;endFill=0;startFill=0;endSize=8;html=1;verticalAlign=bottom;dashed=1;labelBackgroundColor=none;rounded=0;" parent="1" edge="1">
          <mxGeometry width="160" relative="1" as="geometry">
            <mxPoint x="510" y="2023" as="sourcePoint" />
            <mxPoint x="220" y="2023" as="targetPoint" />
          </mxGeometry>
        </mxCell>
        <mxCell id="cphryxpFYoay0DcUjreO-172" value="" style="endArrow=none;startArrow=none;endFill=0;startFill=0;endSize=8;html=1;verticalAlign=bottom;dashed=1;labelBackgroundColor=none;dashPattern=10 10;rounded=0;" parent="1" edge="1">
          <mxGeometry x="-0.025" y="10" width="160" relative="1" as="geometry">
            <mxPoint x="30" y="2133" as="sourcePoint" />
            <mxPoint x="830" y="2133" as="targetPoint" />
            <mxPoint as="offset" />
          </mxGeometry>
        </mxCell>
        <mxCell id="cphryxpFYoay0DcUjreO-173" value="&lt;span style=&quot;font-weight: 700;&quot;&gt;Покупатель&lt;/span&gt;" style="shape=umlLifeline;perimeter=lifelinePerimeter;whiteSpace=wrap;html=1;container=1;dropTarget=0;collapsible=0;recursiveResize=0;outlineConnect=0;portConstraint=eastwest;newEdgeStyle={&quot;edgeStyle&quot;:&quot;elbowEdgeStyle&quot;,&quot;elbow&quot;:&quot;vertical&quot;,&quot;curved&quot;:0,&quot;rounded&quot;:0};" parent="1" vertex="1">
          <mxGeometry x="167" y="2160" width="100" height="240" as="geometry" />
        </mxCell>
        <mxCell id="cphryxpFYoay0DcUjreO-174" value="SYSTEM" style="shape=umlLifeline;perimeter=lifelinePerimeter;whiteSpace=wrap;html=1;container=1;dropTarget=0;collapsible=0;recursiveResize=0;outlineConnect=0;portConstraint=eastwest;newEdgeStyle={&quot;edgeStyle&quot;:&quot;elbowEdgeStyle&quot;,&quot;elbow&quot;:&quot;vertical&quot;,&quot;curved&quot;:0,&quot;rounded&quot;:0};fontStyle=1;" parent="1" vertex="1">
          <mxGeometry x="577" y="2160" width="100" height="240" as="geometry" />
        </mxCell>
        <mxCell id="cphryxpFYoay0DcUjreO-175" value="" style="endArrow=open;startArrow=none;endFill=0;startFill=0;endSize=8;html=1;verticalAlign=bottom;labelBackgroundColor=none;strokeWidth=1;rounded=0;" parent="1" target="cphryxpFYoay0DcUjreO-174" edge="1">
          <mxGeometry width="160" relative="1" as="geometry">
            <mxPoint x="217" y="2240" as="sourcePoint" />
            <mxPoint x="507" y="2240" as="targetPoint" />
          </mxGeometry>
        </mxCell>
        <mxCell id="cphryxpFYoay0DcUjreO-176" value="ПриготовитьНапиток(Напиток&lt;span style=&quot;font-size: 12px; text-wrap: wrap;&quot;&gt;Название&lt;/span&gt;, Модификаторы&lt;span style=&quot;font-size: 12px; text-wrap: wrap;&quot;&gt;Названия&lt;/span&gt;)" style="edgeLabel;html=1;align=center;verticalAlign=middle;resizable=0;points=[];labelBackgroundColor=#FFE599;" parent="cphryxpFYoay0DcUjreO-175" vertex="1" connectable="0">
          <mxGeometry x="0.3199" relative="1" as="geometry">
            <mxPoint x="-75" y="-10" as="offset" />
          </mxGeometry>
        </mxCell>
        <mxCell id="cphryxpFYoay0DcUjreO-177" value="" style="endArrow=open;startArrow=none;endFill=0;startFill=0;endSize=8;html=1;verticalAlign=bottom;labelBackgroundColor=none;strokeWidth=1;rounded=0;" parent="1" target="cphryxpFYoay0DcUjreO-174" edge="1">
          <mxGeometry width="160" relative="1" as="geometry">
            <mxPoint x="217" y="2360" as="sourcePoint" />
            <mxPoint x="507" y="2360" as="targetPoint" />
          </mxGeometry>
        </mxCell>
        <mxCell id="cphryxpFYoay0DcUjreO-178" value="ЗабратьКофе()" style="edgeLabel;html=1;align=center;verticalAlign=middle;resizable=0;points=[];" parent="cphryxpFYoay0DcUjreO-177" vertex="1" connectable="0">
          <mxGeometry x="0.3199" relative="1" as="geometry">
            <mxPoint x="-90" y="-10" as="offset" />
          </mxGeometry>
        </mxCell>
        <mxCell id="cphryxpFYoay0DcUjreO-179" value="Состояние &quot;в процессе&quot;" style="endArrow=open;startArrow=none;endFill=0;startFill=0;endSize=8;html=1;verticalAlign=bottom;dashed=1;labelBackgroundColor=none;rounded=0;" parent="1" source="cphryxpFYoay0DcUjreO-174" edge="1">
          <mxGeometry x="0.1209" width="160" relative="1" as="geometry">
            <mxPoint x="507" y="2280" as="sourcePoint" />
            <mxPoint x="217" y="2280" as="targetPoint" />
            <mxPoint x="1" as="offset" />
          </mxGeometry>
        </mxCell>
        <mxCell id="cphryxpFYoay0DcUjreO-180" value="Состояние &quot;готово&quot;" style="endArrow=open;startArrow=none;endFill=0;startFill=0;endSize=8;html=1;verticalAlign=bottom;dashed=1;labelBackgroundColor=none;rounded=0;" parent="1" source="cphryxpFYoay0DcUjreO-174" edge="1">
          <mxGeometry x="0.1209" width="160" relative="1" as="geometry">
            <mxPoint x="507" y="2320" as="sourcePoint" />
            <mxPoint x="217" y="2320" as="targetPoint" />
            <mxPoint x="1" as="offset" />
          </mxGeometry>
        </mxCell>
        <mxCell id="cphryxpFYoay0DcUjreO-240" value="" style="endArrow=none;startArrow=none;endFill=0;startFill=0;endSize=8;html=1;verticalAlign=bottom;dashed=1;labelBackgroundColor=none;dashPattern=10 10;rounded=0;" parent="1" edge="1">
          <mxGeometry x="-0.025" y="10" width="160" relative="1" as="geometry">
            <mxPoint x="83" y="2489" as="sourcePoint" />
            <mxPoint x="1973" y="2489" as="targetPoint" />
            <mxPoint as="offset" />
          </mxGeometry>
        </mxCell>
        <mxCell id="cphryxpFYoay0DcUjreO-241" value="&lt;span style=&quot;font-weight: 700;&quot;&gt;СистемаВвода&lt;/span&gt;" style="shape=umlLifeline;perimeter=lifelinePerimeter;whiteSpace=wrap;html=1;container=1;dropTarget=0;collapsible=0;recursiveResize=0;outlineConnect=0;portConstraint=eastwest;newEdgeStyle={&quot;curved&quot;:0,&quot;rounded&quot;:0};" parent="1" vertex="1">
          <mxGeometry x="173" y="2529" width="100" height="886" as="geometry" />
        </mxCell>
        <mxCell id="cphryxpFYoay0DcUjreO-504" value="" style="html=1;points=[[0,0,0,0,5],[0,1,0,0,-5],[1,0,0,0,5],[1,1,0,0,-5]];perimeter=orthogonalPerimeter;outlineConnect=0;targetShapes=umlLifeline;portConstraint=eastwest;newEdgeStyle={&quot;curved&quot;:0,&quot;rounded&quot;:0};" parent="cphryxpFYoay0DcUjreO-241" vertex="1">
          <mxGeometry x="45" y="120" width="10" height="707" as="geometry" />
        </mxCell>
        <mxCell id="cphryxpFYoay0DcUjreO-242" value="&lt;span style=&quot;font-weight: 700;&quot;&gt;: Напиток&lt;/span&gt;" style="shape=umlLifeline;perimeter=lifelinePerimeter;whiteSpace=wrap;html=1;container=1;dropTarget=0;collapsible=0;recursiveResize=0;outlineConnect=0;portConstraint=eastwest;newEdgeStyle={&quot;curved&quot;:0,&quot;rounded&quot;:0};" parent="1" vertex="1">
          <mxGeometry x="759" y="2755" width="100" height="653" as="geometry" />
        </mxCell>
        <mxCell id="snAX9C6S7c4YlDo4RfjO-33" value="" style="html=1;points=[[0,0,0,0,5],[0,1,0,0,-5],[1,0,0,0,5],[1,1,0,0,-5]];perimeter=orthogonalPerimeter;outlineConnect=0;targetShapes=umlLifeline;portConstraint=eastwest;newEdgeStyle={&quot;curved&quot;:0,&quot;rounded&quot;:0};" parent="cphryxpFYoay0DcUjreO-242" vertex="1">
          <mxGeometry x="44.99999999999977" y="337" width="10" height="91" as="geometry" />
        </mxCell>
        <mxCell id="cphryxpFYoay0DcUjreO-251" value="&lt;span style=&quot;font-weight: 700;&quot;&gt;МенеджерМодификаторов&lt;/span&gt;" style="shape=umlLifeline;perimeter=lifelinePerimeter;whiteSpace=wrap;html=1;container=1;dropTarget=0;collapsible=0;recursiveResize=0;outlineConnect=0;portConstraint=eastwest;newEdgeStyle={&quot;curved&quot;:0,&quot;rounded&quot;:0};" parent="1" vertex="1">
          <mxGeometry x="850" y="2529" width="175" height="879" as="geometry" />
        </mxCell>
        <mxCell id="cphryxpFYoay0DcUjreO-254" value="" style="html=1;points=[[0,0,0,0,5],[0,1,0,0,-5],[1,0,0,0,5],[1,1,0,0,-5]];perimeter=orthogonalPerimeter;outlineConnect=0;targetShapes=umlLifeline;portConstraint=eastwest;newEdgeStyle={&quot;curved&quot;:0,&quot;rounded&quot;:0};" parent="cphryxpFYoay0DcUjreO-251" vertex="1">
          <mxGeometry x="82.5" y="400" width="10" height="90" as="geometry" />
        </mxCell>
        <mxCell id="cphryxpFYoay0DcUjreO-256" value="&lt;span style=&quot;font-weight: 700;&quot;&gt;ПрограммаКофейномуАппарату&lt;/span&gt;" style="shape=umlLifeline;perimeter=lifelinePerimeter;whiteSpace=wrap;html=1;container=1;dropTarget=0;collapsible=0;recursiveResize=0;outlineConnect=0;portConstraint=eastwest;newEdgeStyle={&quot;curved&quot;:0,&quot;rounded&quot;:0};" parent="1" vertex="1">
          <mxGeometry x="1286" y="3224" width="220" height="261" as="geometry" />
        </mxCell>
        <mxCell id="cphryxpFYoay0DcUjreO-259" value="&lt;span style=&quot;font-weight: 700;&quot;&gt;КофейныйАппарат&lt;/span&gt;" style="shape=umlLifeline;perimeter=lifelinePerimeter;whiteSpace=wrap;html=1;container=1;dropTarget=0;collapsible=0;recursiveResize=0;outlineConnect=0;portConstraint=eastwest;newEdgeStyle={&quot;curved&quot;:0,&quot;rounded&quot;:0};" parent="1" vertex="1">
          <mxGeometry x="1569.9999999999998" y="2528" width="150" height="880" as="geometry" />
        </mxCell>
        <mxCell id="cphryxpFYoay0DcUjreO-260" value="" style="html=1;points=[[0,0,0,0,5],[0,1,0,0,-5],[1,0,0,0,5],[1,1,0,0,-5]];perimeter=orthogonalPerimeter;outlineConnect=0;targetShapes=umlLifeline;portConstraint=eastwest;newEdgeStyle={&quot;curved&quot;:0,&quot;rounded&quot;:0};" parent="cphryxpFYoay0DcUjreO-259" vertex="1">
          <mxGeometry x="70" y="777" width="10" height="91" as="geometry" />
        </mxCell>
        <mxCell id="cphryxpFYoay0DcUjreO-261" value="" style="endArrow=open;startArrow=none;endFill=0;startFill=0;endSize=8;html=1;verticalAlign=bottom;labelBackgroundColor=none;strokeWidth=1;rounded=0;entryX=0;entryY=0.25;entryDx=0;entryDy=0;" parent="1" edge="1">
          <mxGeometry width="160" relative="1" as="geometry">
            <mxPoint x="-155" y="2649" as="sourcePoint" />
            <mxPoint x="221" y="2649" as="targetPoint" />
          </mxGeometry>
        </mxCell>
        <mxCell id="cphryxpFYoay0DcUjreO-262" value="ПриготовитьНапиток(Напиток&lt;span style=&quot;font-size: 12px; text-wrap: wrap;&quot;&gt;Название&lt;/span&gt;, Модификаторы&lt;span style=&quot;font-size: 12px; text-wrap: wrap;&quot;&gt;Названия&lt;/span&gt;)" style="edgeLabel;html=1;align=center;verticalAlign=middle;resizable=0;points=[];labelBackgroundColor=none;" parent="cphryxpFYoay0DcUjreO-261" vertex="1" connectable="0">
          <mxGeometry x="0.3199" relative="1" as="geometry">
            <mxPoint x="-75" y="-10" as="offset" />
          </mxGeometry>
        </mxCell>
        <mxCell id="cphryxpFYoay0DcUjreO-265" value="" style="endArrow=block;startArrow=none;endFill=1;startFill=0;endSize=8;html=1;verticalAlign=bottom;labelBackgroundColor=none;strokeWidth=1;rounded=0;edgeStyle=orthogonalEdgeStyle;entryX=0;entryY=0;entryDx=0;entryDy=5;entryPerimeter=0;" parent="1" source="cphryxpFYoay0DcUjreO-504" target="cphryxpFYoay0DcUjreO-254" edge="1">
          <mxGeometry width="160" relative="1" as="geometry">
            <mxPoint x="237" y="2934" as="sourcePoint" />
            <mxPoint x="964.1999999999999" y="2930" as="targetPoint" />
            <Array as="points">
              <mxPoint x="376" y="2934" />
              <mxPoint x="376" y="2934" />
            </Array>
          </mxGeometry>
        </mxCell>
        <mxCell id="cphryxpFYoay0DcUjreO-266" value="&lt;span style=&quot;font-size: 12px; text-align: left; text-wrap-mode: wrap; background-color: rgb(251, 251, 251);&quot;&gt;Напиток = СоздатьМодификатор(Модификатор, Напиток)&lt;/span&gt;" style="edgeLabel;html=1;align=center;verticalAlign=middle;resizable=0;points=[];fontSize=11;" parent="cphryxpFYoay0DcUjreO-265" vertex="1" connectable="0">
          <mxGeometry x="-0.2296" y="1" relative="1" as="geometry">
            <mxPoint x="-141" y="-30" as="offset" />
          </mxGeometry>
        </mxCell>
        <mxCell id="cphryxpFYoay0DcUjreO-269" value="" style="endArrow=block;startArrow=none;endFill=1;startFill=0;endSize=8;html=1;verticalAlign=bottom;labelBackgroundColor=none;strokeWidth=1;rounded=0;edgeStyle=orthogonalEdgeStyle;" parent="1" source="cphryxpFYoay0DcUjreO-254" edge="1">
          <mxGeometry width="160" relative="1" as="geometry">
            <mxPoint x="924.9999999999999" y="2968.79" as="sourcePoint" />
            <mxPoint x="1089" y="2974" as="targetPoint" />
            <Array as="points">
              <mxPoint x="1013" y="2974" />
              <mxPoint x="1013" y="2974" />
            </Array>
          </mxGeometry>
        </mxCell>
        <mxCell id="snAX9C6S7c4YlDo4RfjO-31" value="Создать" style="edgeLabel;html=1;align=center;verticalAlign=middle;resizable=0;points=[];fontSize=12;" parent="cphryxpFYoay0DcUjreO-269" vertex="1" connectable="0">
          <mxGeometry x="-0.2579" y="-2" relative="1" as="geometry">
            <mxPoint x="15" y="-19" as="offset" />
          </mxGeometry>
        </mxCell>
        <mxCell id="cphryxpFYoay0DcUjreO-273" value="" style="endArrow=block;startArrow=none;endFill=1;startFill=0;endSize=8;html=1;verticalAlign=bottom;labelBackgroundColor=none;strokeWidth=1;rounded=0;edgeStyle=orthogonalEdgeStyle;" parent="1" edge="1">
          <mxGeometry width="160" relative="1" as="geometry">
            <mxPoint x="227" y="3250" as="sourcePoint" />
            <mxPoint x="1283" y="3250" as="targetPoint" />
            <Array as="points">
              <mxPoint x="556" y="3250" />
              <mxPoint x="556" y="3250" />
            </Array>
          </mxGeometry>
        </mxCell>
        <mxCell id="cphryxpFYoay0DcUjreO-274" value="Программа =&amp;nbsp;&lt;span style=&quot;font-size: 12px; text-align: left; text-wrap-mode: wrap; background-color: rgb(251, 251, 251);&quot;&gt;СформироватьПрограмму(Рецепт):&amp;nbsp;&lt;/span&gt;&lt;span style=&quot;font-size: 12px; text-wrap-mode: wrap; background-color: rgb(251, 251, 251);&quot;&gt;&amp;nbsp;Массив из Структура&lt;/span&gt;" style="edgeLabel;html=1;align=center;verticalAlign=middle;resizable=0;points=[];fontSize=11;" parent="cphryxpFYoay0DcUjreO-273" vertex="1" connectable="0">
          <mxGeometry x="-0.2296" y="1" relative="1" as="geometry">
            <mxPoint x="-182" y="-30" as="offset" />
          </mxGeometry>
        </mxCell>
        <mxCell id="cphryxpFYoay0DcUjreO-275" value="" style="endArrow=block;startArrow=none;endFill=1;startFill=0;endSize=8;html=1;verticalAlign=bottom;labelBackgroundColor=none;strokeWidth=1;rounded=0;edgeStyle=orthogonalEdgeStyle;" parent="1" source="cphryxpFYoay0DcUjreO-504" edge="1">
          <mxGeometry width="160" relative="1" as="geometry">
            <mxPoint x="230" y="3341" as="sourcePoint" />
            <mxPoint x="1640" y="3310" as="targetPoint" />
            <Array as="points">
              <mxPoint x="919" y="3310" />
              <mxPoint x="919" y="3310" />
            </Array>
          </mxGeometry>
        </mxCell>
        <mxCell id="cphryxpFYoay0DcUjreO-276" value="Приготовить(Программа)" style="edgeLabel;html=1;align=center;verticalAlign=middle;resizable=0;points=[];fontSize=11;" parent="cphryxpFYoay0DcUjreO-275" vertex="1" connectable="0">
          <mxGeometry x="-0.2296" y="1" relative="1" as="geometry">
            <mxPoint x="-372" y="-24" as="offset" />
          </mxGeometry>
        </mxCell>
        <mxCell id="cphryxpFYoay0DcUjreO-277" value="" style="endArrow=none;startArrow=none;endFill=0;startFill=0;endSize=8;html=1;verticalAlign=bottom;dashed=1;labelBackgroundColor=none;dashPattern=10 10;rounded=0;" parent="1" edge="1">
          <mxGeometry x="-0.025" y="10" width="160" relative="1" as="geometry">
            <mxPoint x="83" y="3489" as="sourcePoint" />
            <mxPoint x="1973" y="3489" as="targetPoint" />
            <mxPoint as="offset" />
          </mxGeometry>
        </mxCell>
        <mxCell id="cphryxpFYoay0DcUjreO-278" value="&lt;span style=&quot;font-weight: 700;&quot;&gt;Напиток&lt;/span&gt;" style="swimlane;fontStyle=0;align=center;verticalAlign=top;childLayout=stackLayout;horizontal=1;startSize=55;horizontalStack=0;resizeParent=1;resizeParentMax=0;resizeLast=0;collapsible=0;marginBottom=0;html=1;whiteSpace=wrap;" parent="1" vertex="1">
          <mxGeometry x="283" y="3809" width="280" height="203" as="geometry" />
        </mxCell>
        <mxCell id="cphryxpFYoay0DcUjreO-279" value="attributes" style="text;html=1;strokeColor=none;fillColor=none;align=center;verticalAlign=middle;spacingLeft=4;spacingRight=4;overflow=hidden;rotatable=0;points=[[0,0.5],[1,0.5]];portConstraint=eastwest;whiteSpace=wrap;" parent="cphryxpFYoay0DcUjreO-278" vertex="1">
          <mxGeometry y="55" width="280" height="20" as="geometry" />
        </mxCell>
        <mxCell id="cphryxpFYoay0DcUjreO-280" value="&lt;span style=&quot;text-align: center;&quot;&gt;Название: Строка&lt;/span&gt;" style="text;html=1;strokeColor=none;fillColor=none;align=left;verticalAlign=middle;spacingLeft=4;spacingRight=4;overflow=hidden;rotatable=0;points=[[0,0.5],[1,0.5]];portConstraint=eastwest;whiteSpace=wrap;" parent="cphryxpFYoay0DcUjreO-278" vertex="1">
          <mxGeometry y="75" width="280" height="20" as="geometry" />
        </mxCell>
        <mxCell id="cphryxpFYoay0DcUjreO-285" value="" style="line;strokeWidth=1;fillColor=none;align=left;verticalAlign=middle;spacingTop=-1;spacingLeft=3;spacingRight=3;rotatable=0;labelPosition=right;points=[];portConstraint=eastwest;" parent="cphryxpFYoay0DcUjreO-278" vertex="1">
          <mxGeometry y="95" width="280" height="8" as="geometry" />
        </mxCell>
        <mxCell id="cphryxpFYoay0DcUjreO-286" value="operations" style="text;html=1;strokeColor=none;fillColor=none;align=center;verticalAlign=middle;spacingLeft=4;spacingRight=4;overflow=hidden;rotatable=0;points=[[0,0.5],[1,0.5]];portConstraint=eastwest;whiteSpace=wrap;" parent="cphryxpFYoay0DcUjreO-278" vertex="1">
          <mxGeometry y="103" width="280" height="20" as="geometry" />
        </mxCell>
        <mxCell id="snAX9C6S7c4YlDo4RfjO-22" value="Рецепт()&lt;span style=&quot;text-align: center;&quot;&gt;: СтрокаТЧ&lt;/span&gt;" style="text;html=1;strokeColor=none;fillColor=none;align=left;verticalAlign=middle;spacingLeft=4;spacingRight=4;overflow=hidden;rotatable=0;points=[[0,0.5],[1,0.5]];portConstraint=eastwest;whiteSpace=wrap;" parent="cphryxpFYoay0DcUjreO-278" vertex="1">
          <mxGeometry y="123" width="280" height="20" as="geometry" />
        </mxCell>
        <mxCell id="snAX9C6S7c4YlDo4RfjO-25" value="*&amp;nbsp;НомерСтроки" style="text;html=1;strokeColor=none;fillColor=none;align=left;verticalAlign=middle;spacingLeft=4;spacingRight=4;overflow=hidden;rotatable=0;points=[[0,0.5],[1,0.5]];portConstraint=eastwest;whiteSpace=wrap;" parent="cphryxpFYoay0DcUjreO-278" vertex="1">
          <mxGeometry y="143" width="280" height="20" as="geometry" />
        </mxCell>
        <mxCell id="snAX9C6S7c4YlDo4RfjO-24" value="*&amp;nbsp;Ингредиент" style="text;html=1;strokeColor=none;fillColor=none;align=left;verticalAlign=middle;spacingLeft=4;spacingRight=4;overflow=hidden;rotatable=0;points=[[0,0.5],[1,0.5]];portConstraint=eastwest;whiteSpace=wrap;" parent="cphryxpFYoay0DcUjreO-278" vertex="1">
          <mxGeometry y="163" width="280" height="20" as="geometry" />
        </mxCell>
        <mxCell id="snAX9C6S7c4YlDo4RfjO-23" value="*&amp;nbsp;Количество" style="text;html=1;strokeColor=none;fillColor=none;align=left;verticalAlign=middle;spacingLeft=4;spacingRight=4;overflow=hidden;rotatable=0;points=[[0,0.5],[1,0.5]];portConstraint=eastwest;whiteSpace=wrap;" parent="cphryxpFYoay0DcUjreO-278" vertex="1">
          <mxGeometry y="183" width="280" height="20" as="geometry" />
        </mxCell>
        <mxCell id="cphryxpFYoay0DcUjreO-288" value="&lt;span style=&quot;font-weight: 700;&quot;&gt;ПрограммаКофейномуАппарату&lt;/span&gt;" style="swimlane;fontStyle=0;align=center;verticalAlign=top;childLayout=stackLayout;horizontal=1;startSize=55;horizontalStack=0;resizeParent=1;resizeParentMax=0;resizeLast=0;collapsible=0;marginBottom=0;html=1;whiteSpace=wrap;" parent="1" vertex="1">
          <mxGeometry x="1030.5" y="3539" width="472.5" height="163" as="geometry" />
        </mxCell>
        <mxCell id="cphryxpFYoay0DcUjreO-289" value="attributes" style="text;html=1;strokeColor=none;fillColor=none;align=center;verticalAlign=middle;spacingLeft=4;spacingRight=4;overflow=hidden;rotatable=0;points=[[0,0.5],[1,0.5]];portConstraint=eastwest;whiteSpace=wrap;" parent="cphryxpFYoay0DcUjreO-288" vertex="1">
          <mxGeometry y="55" width="472.5" height="20" as="geometry" />
        </mxCell>
        <mxCell id="cphryxpFYoay0DcUjreO-290" value="" style="line;strokeWidth=1;fillColor=none;align=left;verticalAlign=middle;spacingTop=-1;spacingLeft=3;spacingRight=3;rotatable=0;labelPosition=right;points=[];portConstraint=eastwest;" parent="cphryxpFYoay0DcUjreO-288" vertex="1">
          <mxGeometry y="75" width="472.5" height="8" as="geometry" />
        </mxCell>
        <mxCell id="cphryxpFYoay0DcUjreO-291" value="operations" style="text;html=1;strokeColor=none;fillColor=none;align=center;verticalAlign=middle;spacingLeft=4;spacingRight=4;overflow=hidden;rotatable=0;points=[[0,0.5],[1,0.5]];portConstraint=eastwest;whiteSpace=wrap;" parent="cphryxpFYoay0DcUjreO-288" vertex="1">
          <mxGeometry y="83" width="472.5" height="20" as="geometry" />
        </mxCell>
        <mxCell id="cphryxpFYoay0DcUjreO-292" value="СформироватьПрограмму(Рецепт):&amp;nbsp;&lt;span style=&quot;text-align: center;&quot;&gt;&amp;nbsp;Массив из Структура&lt;/span&gt;" style="text;html=1;strokeColor=none;fillColor=none;align=left;verticalAlign=middle;spacingLeft=4;spacingRight=4;overflow=hidden;rotatable=0;points=[[0,0.5],[1,0.5]];portConstraint=eastwest;whiteSpace=wrap;" parent="cphryxpFYoay0DcUjreO-288" vertex="1">
          <mxGeometry y="103" width="472.5" height="20" as="geometry" />
        </mxCell>
        <mxCell id="cphryxpFYoay0DcUjreO-293" value="*&amp;nbsp;Команда" style="text;html=1;strokeColor=none;fillColor=none;align=left;verticalAlign=middle;spacingLeft=4;spacingRight=4;overflow=hidden;rotatable=0;points=[[0,0.5],[1,0.5]];portConstraint=eastwest;whiteSpace=wrap;" parent="cphryxpFYoay0DcUjreO-288" vertex="1">
          <mxGeometry y="123" width="472.5" height="20" as="geometry" />
        </mxCell>
        <mxCell id="cphryxpFYoay0DcUjreO-294" value="*&amp;nbsp;Кратность" style="text;html=1;strokeColor=none;fillColor=none;align=left;verticalAlign=middle;spacingLeft=4;spacingRight=4;overflow=hidden;rotatable=0;points=[[0,0.5],[1,0.5]];portConstraint=eastwest;whiteSpace=wrap;" parent="cphryxpFYoay0DcUjreO-288" vertex="1">
          <mxGeometry y="143" width="472.5" height="20" as="geometry" />
        </mxCell>
        <mxCell id="cphryxpFYoay0DcUjreO-295" value="&amp;lt;&amp;lt;enumeration&amp;gt;&amp;gt;&lt;br&gt;&lt;b&gt;Ингредиент&lt;/b&gt;" style="swimlane;fontStyle=0;align=center;verticalAlign=top;childLayout=stackLayout;horizontal=1;startSize=40;horizontalStack=0;resizeParent=1;resizeParentMax=0;resizeLast=0;collapsible=0;marginBottom=0;html=1;whiteSpace=wrap;" parent="1" vertex="1">
          <mxGeometry x="273" y="3549" width="140" height="100" as="geometry" />
        </mxCell>
        <mxCell id="cphryxpFYoay0DcUjreO-296" value="Сахар" style="text;html=1;strokeColor=none;fillColor=none;align=left;verticalAlign=middle;spacingLeft=4;spacingRight=4;overflow=hidden;rotatable=0;points=[[0,0.5],[1,0.5]];portConstraint=eastwest;whiteSpace=wrap;" parent="cphryxpFYoay0DcUjreO-295" vertex="1">
          <mxGeometry y="40" width="140" height="30" as="geometry" />
        </mxCell>
        <mxCell id="cphryxpFYoay0DcUjreO-297" value="..." style="text;html=1;strokeColor=none;fillColor=none;align=left;verticalAlign=middle;spacingLeft=4;spacingRight=4;overflow=hidden;rotatable=0;points=[[0,0.5],[1,0.5]];portConstraint=eastwest;whiteSpace=wrap;" parent="cphryxpFYoay0DcUjreO-295" vertex="1">
          <mxGeometry y="70" width="140" height="30" as="geometry" />
        </mxCell>
        <mxCell id="cphryxpFYoay0DcUjreO-298" value="&lt;div&gt;&amp;lt;&amp;lt;interface&amp;gt;&amp;gt;&lt;i&gt;&lt;b&gt;&lt;br&gt;&lt;/b&gt;&lt;/i&gt;&lt;/div&gt;&lt;i&gt;&lt;b&gt;Рецепт&lt;/b&gt;&lt;/i&gt;&lt;div&gt;&lt;br&gt;&lt;/div&gt;" style="swimlane;fontStyle=0;align=center;verticalAlign=top;childLayout=stackLayout;horizontal=1;startSize=55;horizontalStack=0;resizeParent=1;resizeParentMax=0;resizeLast=0;collapsible=0;marginBottom=0;html=1;whiteSpace=wrap;" parent="1" vertex="1">
          <mxGeometry x="543" y="3539" width="140" height="183" as="geometry" />
        </mxCell>
        <mxCell id="cphryxpFYoay0DcUjreO-299" value="attributes" style="text;html=1;strokeColor=none;fillColor=none;align=center;verticalAlign=middle;spacingLeft=4;spacingRight=4;overflow=hidden;rotatable=0;points=[[0,0.5],[1,0.5]];portConstraint=eastwest;whiteSpace=wrap;" parent="cphryxpFYoay0DcUjreO-298" vertex="1">
          <mxGeometry y="55" width="140" height="20" as="geometry" />
        </mxCell>
        <mxCell id="cphryxpFYoay0DcUjreO-304" value="" style="line;strokeWidth=1;fillColor=none;align=left;verticalAlign=middle;spacingTop=-1;spacingLeft=3;spacingRight=3;rotatable=0;labelPosition=right;points=[];portConstraint=eastwest;" parent="cphryxpFYoay0DcUjreO-298" vertex="1">
          <mxGeometry y="75" width="140" height="8" as="geometry" />
        </mxCell>
        <mxCell id="cphryxpFYoay0DcUjreO-305" value="operations" style="text;html=1;strokeColor=none;fillColor=none;align=center;verticalAlign=middle;spacingLeft=4;spacingRight=4;overflow=hidden;rotatable=0;points=[[0,0.5],[1,0.5]];portConstraint=eastwest;whiteSpace=wrap;" parent="cphryxpFYoay0DcUjreO-298" vertex="1">
          <mxGeometry y="83" width="140" height="20" as="geometry" />
        </mxCell>
        <mxCell id="snAX9C6S7c4YlDo4RfjO-8" value="Рецепт()&lt;span style=&quot;text-align: center;&quot;&gt;: СтрокаТЧ&lt;/span&gt;" style="text;html=1;strokeColor=none;fillColor=none;align=left;verticalAlign=middle;spacingLeft=4;spacingRight=4;overflow=hidden;rotatable=0;points=[[0,0.5],[1,0.5]];portConstraint=eastwest;whiteSpace=wrap;" parent="cphryxpFYoay0DcUjreO-298" vertex="1">
          <mxGeometry y="103" width="140" height="20" as="geometry" />
        </mxCell>
        <mxCell id="snAX9C6S7c4YlDo4RfjO-9" value="*&amp;nbsp;Количество" style="text;html=1;strokeColor=none;fillColor=none;align=left;verticalAlign=middle;spacingLeft=4;spacingRight=4;overflow=hidden;rotatable=0;points=[[0,0.5],[1,0.5]];portConstraint=eastwest;whiteSpace=wrap;" parent="cphryxpFYoay0DcUjreO-298" vertex="1">
          <mxGeometry y="123" width="140" height="20" as="geometry" />
        </mxCell>
        <mxCell id="snAX9C6S7c4YlDo4RfjO-10" value="*&amp;nbsp;Ингредиент" style="text;html=1;strokeColor=none;fillColor=none;align=left;verticalAlign=middle;spacingLeft=4;spacingRight=4;overflow=hidden;rotatable=0;points=[[0,0.5],[1,0.5]];portConstraint=eastwest;whiteSpace=wrap;" parent="cphryxpFYoay0DcUjreO-298" vertex="1">
          <mxGeometry y="143" width="140" height="20" as="geometry" />
        </mxCell>
        <mxCell id="snAX9C6S7c4YlDo4RfjO-11" value="*&amp;nbsp;НомерСтроки" style="text;html=1;strokeColor=none;fillColor=none;align=left;verticalAlign=middle;spacingLeft=4;spacingRight=4;overflow=hidden;rotatable=0;points=[[0,0.5],[1,0.5]];portConstraint=eastwest;whiteSpace=wrap;" parent="cphryxpFYoay0DcUjreO-298" vertex="1">
          <mxGeometry y="163" width="140" height="20" as="geometry" />
        </mxCell>
        <mxCell id="cphryxpFYoay0DcUjreO-306" value="" style="html=1;verticalAlign=bottom;labelBackgroundColor=none;endArrow=block;endFill=0;rounded=0;fontSize=12;startSize=8;endSize=8;curved=1;exitX=0.5;exitY=0;exitDx=0;exitDy=0;dashed=1;entryX=0.007;entryY=1.281;entryDx=0;entryDy=0;entryPerimeter=0;" parent="1" source="cphryxpFYoay0DcUjreO-278" target="snAX9C6S7c4YlDo4RfjO-11" edge="1">
          <mxGeometry width="160" relative="1" as="geometry">
            <mxPoint x="343" y="3749" as="sourcePoint" />
            <mxPoint x="561" y="3730" as="targetPoint" />
          </mxGeometry>
        </mxCell>
        <mxCell id="cphryxpFYoay0DcUjreO-307" value="" style="endArrow=open;startArrow=none;endFill=0;startFill=0;endSize=8;html=1;verticalAlign=bottom;labelBackgroundColor=none;strokeWidth=1;rounded=0;fontSize=12;curved=1;dashed=1;exitX=0;exitY=0.5;exitDx=0;exitDy=0;entryX=1;entryY=0.25;entryDx=0;entryDy=0;" parent="1" source="cphryxpFYoay0DcUjreO-292" target="cphryxpFYoay0DcUjreO-298" edge="1">
          <mxGeometry width="160" relative="1" as="geometry">
            <mxPoint x="773" y="3649" as="sourcePoint" />
            <mxPoint x="723" y="3569" as="targetPoint" />
          </mxGeometry>
        </mxCell>
        <mxCell id="cphryxpFYoay0DcUjreO-308" value="argument" style="edgeLabel;html=1;align=center;verticalAlign=middle;resizable=0;points=[];fontSize=12;" parent="cphryxpFYoay0DcUjreO-307" vertex="1" connectable="0">
          <mxGeometry x="0.1911" y="2" relative="1" as="geometry">
            <mxPoint x="150" y="8" as="offset" />
          </mxGeometry>
        </mxCell>
        <mxCell id="cphryxpFYoay0DcUjreO-309" value="&lt;b&gt;Модификатор&lt;/b&gt;&lt;div&gt;&lt;div&gt;{декоратор}&lt;/div&gt;&lt;/div&gt;" style="swimlane;fontStyle=0;align=center;verticalAlign=top;childLayout=stackLayout;horizontal=1;startSize=55;horizontalStack=0;resizeParent=1;resizeParentMax=0;resizeLast=0;collapsible=0;marginBottom=0;html=1;whiteSpace=wrap;" parent="1" vertex="1">
          <mxGeometry x="737" y="3739" width="227" height="203" as="geometry" />
        </mxCell>
        <mxCell id="cphryxpFYoay0DcUjreO-310" value="attributes" style="text;html=1;strokeColor=none;fillColor=none;align=center;verticalAlign=middle;spacingLeft=4;spacingRight=4;overflow=hidden;rotatable=0;points=[[0,0.5],[1,0.5]];portConstraint=eastwest;whiteSpace=wrap;" parent="cphryxpFYoay0DcUjreO-309" vertex="1">
          <mxGeometry y="55" width="227" height="20" as="geometry" />
        </mxCell>
        <mxCell id="cphryxpFYoay0DcUjreO-315" value="" style="line;strokeWidth=1;fillColor=none;align=left;verticalAlign=middle;spacingTop=-1;spacingLeft=3;spacingRight=3;rotatable=0;labelPosition=right;points=[];portConstraint=eastwest;" parent="cphryxpFYoay0DcUjreO-309" vertex="1">
          <mxGeometry y="75" width="227" height="8" as="geometry" />
        </mxCell>
        <mxCell id="cphryxpFYoay0DcUjreO-316" value="operations" style="text;html=1;strokeColor=none;fillColor=none;align=center;verticalAlign=middle;spacingLeft=4;spacingRight=4;overflow=hidden;rotatable=0;points=[[0,0.5],[1,0.5]];portConstraint=eastwest;whiteSpace=wrap;" parent="cphryxpFYoay0DcUjreO-309" vertex="1">
          <mxGeometry y="83" width="227" height="20" as="geometry" />
        </mxCell>
        <mxCell id="snAX9C6S7c4YlDo4RfjO-26" value="Рецепт()&lt;span style=&quot;text-align: center;&quot;&gt;: СтрокаТЧ&lt;/span&gt;" style="text;html=1;strokeColor=none;fillColor=none;align=left;verticalAlign=middle;spacingLeft=4;spacingRight=4;overflow=hidden;rotatable=0;points=[[0,0.5],[1,0.5]];portConstraint=eastwest;whiteSpace=wrap;" parent="cphryxpFYoay0DcUjreO-309" vertex="1">
          <mxGeometry y="103" width="227" height="20" as="geometry" />
        </mxCell>
        <mxCell id="snAX9C6S7c4YlDo4RfjO-27" value="*&amp;nbsp;НомерСтроки" style="text;html=1;strokeColor=none;fillColor=none;align=left;verticalAlign=middle;spacingLeft=4;spacingRight=4;overflow=hidden;rotatable=0;points=[[0,0.5],[1,0.5]];portConstraint=eastwest;whiteSpace=wrap;" parent="cphryxpFYoay0DcUjreO-309" vertex="1">
          <mxGeometry y="123" width="227" height="20" as="geometry" />
        </mxCell>
        <mxCell id="snAX9C6S7c4YlDo4RfjO-28" value="*&amp;nbsp;Ингредиент" style="text;html=1;strokeColor=none;fillColor=none;align=left;verticalAlign=middle;spacingLeft=4;spacingRight=4;overflow=hidden;rotatable=0;points=[[0,0.5],[1,0.5]];portConstraint=eastwest;whiteSpace=wrap;" parent="cphryxpFYoay0DcUjreO-309" vertex="1">
          <mxGeometry y="143" width="227" height="20" as="geometry" />
        </mxCell>
        <mxCell id="snAX9C6S7c4YlDo4RfjO-29" value="*&amp;nbsp;Количество" style="text;html=1;strokeColor=none;fillColor=none;align=left;verticalAlign=middle;spacingLeft=4;spacingRight=4;overflow=hidden;rotatable=0;points=[[0,0.5],[1,0.5]];portConstraint=eastwest;whiteSpace=wrap;" parent="cphryxpFYoay0DcUjreO-309" vertex="1">
          <mxGeometry y="163" width="227" height="20" as="geometry" />
        </mxCell>
        <mxCell id="snAX9C6S7c4YlDo4RfjO-37" value="&lt;span style=&quot;text-wrap-mode: nowrap;&quot;&gt;/ ПриментитьМодицифкацию(Рецепт)&lt;/span&gt;" style="text;html=1;strokeColor=none;fillColor=none;align=left;verticalAlign=middle;spacingLeft=4;spacingRight=4;overflow=hidden;rotatable=0;points=[[0,0.5],[1,0.5]];portConstraint=eastwest;whiteSpace=wrap;" parent="cphryxpFYoay0DcUjreO-309" vertex="1">
          <mxGeometry y="183" width="227" height="20" as="geometry" />
        </mxCell>
        <mxCell id="cphryxpFYoay0DcUjreO-317" value="" style="html=1;verticalAlign=bottom;labelBackgroundColor=none;endArrow=block;endFill=0;rounded=0;fontSize=12;startSize=8;endSize=8;curved=1;exitX=0.5;exitY=0;exitDx=0;exitDy=0;entryX=1;entryY=0.5;entryDx=0;entryDy=0;dashed=1;" parent="1" source="cphryxpFYoay0DcUjreO-309" target="cphryxpFYoay0DcUjreO-305" edge="1">
          <mxGeometry width="160" relative="1" as="geometry">
            <mxPoint x="433" y="3819" as="sourcePoint" />
            <mxPoint x="614" y="3734" as="targetPoint" />
          </mxGeometry>
        </mxCell>
        <mxCell id="cphryxpFYoay0DcUjreO-318" value="&lt;span style=&quot;font-weight: 700;&quot;&gt;СистемаВвода&lt;/span&gt;" style="swimlane;fontStyle=0;align=center;verticalAlign=top;childLayout=stackLayout;horizontal=1;startSize=55;horizontalStack=0;resizeParent=1;resizeParentMax=0;resizeLast=0;collapsible=0;marginBottom=0;html=1;whiteSpace=wrap;" parent="1" vertex="1">
          <mxGeometry x="588" y="4239" width="350" height="123" as="geometry" />
        </mxCell>
        <mxCell id="cphryxpFYoay0DcUjreO-319" value="attributes" style="text;html=1;strokeColor=none;fillColor=none;align=center;verticalAlign=middle;spacingLeft=4;spacingRight=4;overflow=hidden;rotatable=0;points=[[0,0.5],[1,0.5]];portConstraint=eastwest;whiteSpace=wrap;" parent="cphryxpFYoay0DcUjreO-318" vertex="1">
          <mxGeometry y="55" width="350" height="20" as="geometry" />
        </mxCell>
        <mxCell id="cphryxpFYoay0DcUjreO-320" value="" style="line;strokeWidth=1;fillColor=none;align=left;verticalAlign=middle;spacingTop=-1;spacingLeft=3;spacingRight=3;rotatable=0;labelPosition=right;points=[];portConstraint=eastwest;" parent="cphryxpFYoay0DcUjreO-318" vertex="1">
          <mxGeometry y="75" width="350" height="8" as="geometry" />
        </mxCell>
        <mxCell id="cphryxpFYoay0DcUjreO-321" value="operations" style="text;html=1;strokeColor=none;fillColor=none;align=center;verticalAlign=middle;spacingLeft=4;spacingRight=4;overflow=hidden;rotatable=0;points=[[0,0.5],[1,0.5]];portConstraint=eastwest;whiteSpace=wrap;" parent="cphryxpFYoay0DcUjreO-318" vertex="1">
          <mxGeometry y="83" width="350" height="20" as="geometry" />
        </mxCell>
        <mxCell id="cphryxpFYoay0DcUjreO-322" value="&lt;span style=&quot;font-size: 11px; text-align: center; text-wrap: nowrap;&quot;&gt;ПриготовитьНапиток(Напиток&lt;/span&gt;&lt;span style=&quot;text-align: center;&quot;&gt;Название&lt;/span&gt;&lt;span style=&quot;font-size: 11px; text-align: center; text-wrap: nowrap;&quot;&gt;, Модификаторы&lt;/span&gt;&lt;span style=&quot;text-align: center;&quot;&gt;Названия&lt;/span&gt;&lt;span style=&quot;font-size: 11px; text-align: center; text-wrap: nowrap;&quot;&gt;)&lt;/span&gt;" style="text;html=1;strokeColor=none;fillColor=none;align=left;verticalAlign=middle;spacingLeft=4;spacingRight=4;overflow=hidden;rotatable=0;points=[[0,0.5],[1,0.5]];portConstraint=eastwest;whiteSpace=wrap;" parent="cphryxpFYoay0DcUjreO-318" vertex="1">
          <mxGeometry y="103" width="350" height="20" as="geometry" />
        </mxCell>
        <mxCell id="cphryxpFYoay0DcUjreO-323" value="КофейныйАппарат&lt;div&gt;&lt;span style=&quot;font-weight: normal;&quot;&gt;{адаптер}&lt;/span&gt;&lt;/div&gt;" style="swimlane;fontStyle=1;align=center;verticalAlign=top;childLayout=stackLayout;horizontal=1;startSize=55;horizontalStack=0;resizeParent=1;resizeParentMax=0;resizeLast=0;collapsible=0;marginBottom=0;html=1;whiteSpace=wrap;" parent="1" vertex="1">
          <mxGeometry x="1293" y="4032" width="290" height="123" as="geometry" />
        </mxCell>
        <mxCell id="cphryxpFYoay0DcUjreO-324" value="attributes" style="text;html=1;strokeColor=none;fillColor=none;align=center;verticalAlign=middle;spacingLeft=4;spacingRight=4;overflow=hidden;rotatable=0;points=[[0,0.5],[1,0.5]];portConstraint=eastwest;whiteSpace=wrap;" parent="cphryxpFYoay0DcUjreO-323" vertex="1">
          <mxGeometry y="55" width="290" height="20" as="geometry" />
        </mxCell>
        <mxCell id="cphryxpFYoay0DcUjreO-325" value="" style="line;strokeWidth=1;fillColor=none;align=left;verticalAlign=middle;spacingTop=-1;spacingLeft=3;spacingRight=3;rotatable=0;labelPosition=right;points=[];portConstraint=eastwest;" parent="cphryxpFYoay0DcUjreO-323" vertex="1">
          <mxGeometry y="75" width="290" height="8" as="geometry" />
        </mxCell>
        <mxCell id="cphryxpFYoay0DcUjreO-326" value="operations" style="text;html=1;strokeColor=none;fillColor=none;align=center;verticalAlign=middle;spacingLeft=4;spacingRight=4;overflow=hidden;rotatable=0;points=[[0,0.5],[1,0.5]];portConstraint=eastwest;whiteSpace=wrap;" parent="cphryxpFYoay0DcUjreO-323" vertex="1">
          <mxGeometry y="83" width="290" height="20" as="geometry" />
        </mxCell>
        <mxCell id="cphryxpFYoay0DcUjreO-327" value="&lt;span style=&quot;text-align: center; background-color: rgb(255, 255, 255);&quot;&gt;&lt;span style=&quot;font-size: 11px; text-wrap: nowrap;&quot;&gt;Приготовить(Программа)&lt;/span&gt;&lt;/span&gt;" style="text;html=1;strokeColor=none;fillColor=none;align=left;verticalAlign=middle;spacingLeft=4;spacingRight=4;overflow=hidden;rotatable=0;points=[[0,0.5],[1,0.5]];portConstraint=eastwest;whiteSpace=wrap;" parent="cphryxpFYoay0DcUjreO-323" vertex="1">
          <mxGeometry y="103" width="290" height="20" as="geometry" />
        </mxCell>
        <mxCell id="cphryxpFYoay0DcUjreO-328" value="РеальныйКофейныйАппарат" style="swimlane;fontStyle=1;align=center;verticalAlign=top;childLayout=stackLayout;horizontal=1;startSize=55;horizontalStack=0;resizeParent=1;resizeParentMax=0;resizeLast=0;collapsible=0;marginBottom=0;html=1;whiteSpace=wrap;" parent="1" vertex="1">
          <mxGeometry x="1143" y="4239" width="405" height="123" as="geometry" />
        </mxCell>
        <mxCell id="cphryxpFYoay0DcUjreO-329" value="attributes" style="text;html=1;strokeColor=none;fillColor=none;align=center;verticalAlign=middle;spacingLeft=4;spacingRight=4;overflow=hidden;rotatable=0;points=[[0,0.5],[1,0.5]];portConstraint=eastwest;whiteSpace=wrap;" parent="cphryxpFYoay0DcUjreO-328" vertex="1">
          <mxGeometry y="55" width="405" height="20" as="geometry" />
        </mxCell>
        <mxCell id="cphryxpFYoay0DcUjreO-330" value="" style="line;strokeWidth=1;fillColor=none;align=left;verticalAlign=middle;spacingTop=-1;spacingLeft=3;spacingRight=3;rotatable=0;labelPosition=right;points=[];portConstraint=eastwest;" parent="cphryxpFYoay0DcUjreO-328" vertex="1">
          <mxGeometry y="75" width="405" height="8" as="geometry" />
        </mxCell>
        <mxCell id="cphryxpFYoay0DcUjreO-331" value="operations" style="text;html=1;strokeColor=none;fillColor=none;align=center;verticalAlign=middle;spacingLeft=4;spacingRight=4;overflow=hidden;rotatable=0;points=[[0,0.5],[1,0.5]];portConstraint=eastwest;whiteSpace=wrap;" parent="cphryxpFYoay0DcUjreO-328" vertex="1">
          <mxGeometry y="83" width="405" height="20" as="geometry" />
        </mxCell>
        <mxCell id="cphryxpFYoay0DcUjreO-332" value="&lt;span style=&quot;font-size: 11px; text-align: center; text-wrap: nowrap; background-color: rgb(255, 255, 255);&quot;&gt;ВыполнитьСуперКомандуНаЯзыкеРеальногоАппаратра(Программа)&lt;/span&gt;" style="text;html=1;strokeColor=none;fillColor=none;align=left;verticalAlign=middle;spacingLeft=4;spacingRight=4;overflow=hidden;rotatable=0;points=[[0,0.5],[1,0.5]];portConstraint=eastwest;whiteSpace=wrap;" parent="cphryxpFYoay0DcUjreO-328" vertex="1">
          <mxGeometry y="103" width="405" height="20" as="geometry" />
        </mxCell>
        <mxCell id="cphryxpFYoay0DcUjreO-333" value="" style="endArrow=open;startArrow=none;endFill=0;startFill=0;endSize=8;html=1;verticalAlign=bottom;labelBackgroundColor=none;strokeWidth=1;rounded=0;fontSize=12;curved=1;entryX=0.5;entryY=0;entryDx=0;entryDy=0;exitX=0.515;exitY=1.013;exitDx=0;exitDy=0;exitPerimeter=0;dashed=1;" parent="1" source="cphryxpFYoay0DcUjreO-327" target="cphryxpFYoay0DcUjreO-328" edge="1">
          <mxGeometry width="160" relative="1" as="geometry">
            <mxPoint x="1163" y="3929" as="sourcePoint" />
            <mxPoint x="1323" y="3929" as="targetPoint" />
          </mxGeometry>
        </mxCell>
        <mxCell id="cphryxpFYoay0DcUjreO-334" value="&amp;lt;&amp;lt;call&amp;gt;&amp;gt;" style="edgeLabel;html=1;align=center;verticalAlign=middle;resizable=0;points=[];fontSize=12;" parent="cphryxpFYoay0DcUjreO-333" vertex="1" connectable="0">
          <mxGeometry x="0.4607" y="-1" relative="1" as="geometry">
            <mxPoint x="31" y="-15" as="offset" />
          </mxGeometry>
        </mxCell>
        <mxCell id="cphryxpFYoay0DcUjreO-335" value="" style="endArrow=open;startArrow=none;endFill=0;startFill=0;endSize=8;html=1;verticalAlign=bottom;labelBackgroundColor=none;strokeWidth=1;rounded=0;fontSize=12;curved=1;exitX=0.529;exitY=1.03;exitDx=0;exitDy=0;entryX=0.5;entryY=0;entryDx=0;entryDy=0;dashed=1;exitPerimeter=0;" parent="1" source="cphryxpFYoay0DcUjreO-294" target="cphryxpFYoay0DcUjreO-353" edge="1">
          <mxGeometry width="160" relative="1" as="geometry">
            <mxPoint x="1193" y="3729" as="sourcePoint" />
            <mxPoint x="1353" y="3729" as="targetPoint" />
          </mxGeometry>
        </mxCell>
        <mxCell id="cphryxpFYoay0DcUjreO-336" value="argument" style="edgeLabel;html=1;align=center;verticalAlign=middle;resizable=0;points=[];fontSize=12;" parent="cphryxpFYoay0DcUjreO-335" vertex="1" connectable="0">
          <mxGeometry x="-0.0263" y="4" relative="1" as="geometry">
            <mxPoint y="1" as="offset" />
          </mxGeometry>
        </mxCell>
        <mxCell id="cphryxpFYoay0DcUjreO-337" value="" style="endArrow=open;startArrow=none;endFill=0;startFill=0;endSize=8;html=1;verticalAlign=bottom;dashed=1;labelBackgroundColor=none;rounded=0;fontSize=12;curved=1;entryX=1;entryY=0.25;entryDx=0;entryDy=0;exitX=0;exitY=0.5;exitDx=0;exitDy=0;" parent="1" source="snAX9C6S7c4YlDo4RfjO-10" target="cphryxpFYoay0DcUjreO-295" edge="1">
          <mxGeometry width="160" relative="1" as="geometry">
            <mxPoint x="484" y="3664" as="sourcePoint" />
            <mxPoint x="463" y="3709" as="targetPoint" />
          </mxGeometry>
        </mxCell>
        <mxCell id="cphryxpFYoay0DcUjreO-338" value="" style="endArrow=open;startArrow=none;endFill=0;startFill=0;endSize=8;html=1;verticalAlign=bottom;labelBackgroundColor=none;rounded=0;fontSize=12;curved=1;entryX=1;entryY=0.25;entryDx=0;entryDy=0;exitX=0.25;exitY=0;exitDx=0;exitDy=0;dashed=1;" parent="1" source="cphryxpFYoay0DcUjreO-318" target="snAX9C6S7c4YlDo4RfjO-12" edge="1">
          <mxGeometry width="160" relative="1" as="geometry">
            <mxPoint x="403" y="4089" as="sourcePoint" />
            <mxPoint x="428.03999999999996" y="4032.1800000000003" as="targetPoint" />
          </mxGeometry>
        </mxCell>
        <mxCell id="cphryxpFYoay0DcUjreO-339" value="&amp;lt;&amp;lt;create&amp;gt;&amp;gt;" style="edgeLabel;html=1;align=center;verticalAlign=middle;resizable=0;points=[];fontSize=12;" parent="cphryxpFYoay0DcUjreO-338" vertex="1" connectable="0">
          <mxGeometry x="-0.4793" y="-2" relative="1" as="geometry">
            <mxPoint y="1" as="offset" />
          </mxGeometry>
        </mxCell>
        <mxCell id="cphryxpFYoay0DcUjreO-340" value="" style="endArrow=open;startArrow=none;endFill=0;startFill=0;endSize=8;html=1;verticalAlign=bottom;labelBackgroundColor=none;rounded=0;fontSize=12;curved=1;exitX=0.5;exitY=0;exitDx=0;exitDy=0;entryX=0.574;entryY=1.032;entryDx=0;entryDy=0;entryPerimeter=0;dashed=1;" parent="1" source="cphryxpFYoay0DcUjreO-318" target="cphryxpFYoay0DcUjreO-346" edge="1">
          <mxGeometry width="160" relative="1" as="geometry">
            <mxPoint x="804.5" y="4186" as="sourcePoint" />
            <mxPoint x="753" y="4139" as="targetPoint" />
          </mxGeometry>
        </mxCell>
        <mxCell id="cphryxpFYoay0DcUjreO-341" value="&amp;lt;&amp;lt;call&amp;gt;&amp;gt;" style="edgeLabel;html=1;align=center;verticalAlign=middle;resizable=0;points=[];fontSize=12;" parent="cphryxpFYoay0DcUjreO-340" vertex="1" connectable="0">
          <mxGeometry x="-0.2864" y="-4" relative="1" as="geometry">
            <mxPoint x="1" as="offset" />
          </mxGeometry>
        </mxCell>
        <mxCell id="cphryxpFYoay0DcUjreO-342" value="&lt;b&gt;МенеджерМодификаторов&lt;/b&gt;&lt;br&gt;{фабрика}" style="swimlane;fontStyle=0;align=center;verticalAlign=top;childLayout=stackLayout;horizontal=1;startSize=55;horizontalStack=0;resizeParent=1;resizeParentMax=0;resizeLast=0;collapsible=0;marginBottom=0;html=1;whiteSpace=wrap;" parent="1" vertex="1">
          <mxGeometry x="573" y="4025" width="290" height="123" as="geometry" />
        </mxCell>
        <mxCell id="cphryxpFYoay0DcUjreO-343" value="attributes" style="text;html=1;strokeColor=none;fillColor=none;align=center;verticalAlign=middle;spacingLeft=4;spacingRight=4;overflow=hidden;rotatable=0;points=[[0,0.5],[1,0.5]];portConstraint=eastwest;whiteSpace=wrap;" parent="cphryxpFYoay0DcUjreO-342" vertex="1">
          <mxGeometry y="55" width="290" height="20" as="geometry" />
        </mxCell>
        <mxCell id="cphryxpFYoay0DcUjreO-344" value="" style="line;strokeWidth=1;fillColor=none;align=left;verticalAlign=middle;spacingTop=-1;spacingLeft=3;spacingRight=3;rotatable=0;labelPosition=right;points=[];portConstraint=eastwest;" parent="cphryxpFYoay0DcUjreO-342" vertex="1">
          <mxGeometry y="75" width="290" height="8" as="geometry" />
        </mxCell>
        <mxCell id="cphryxpFYoay0DcUjreO-345" value="operations" style="text;html=1;strokeColor=none;fillColor=none;align=center;verticalAlign=middle;spacingLeft=4;spacingRight=4;overflow=hidden;rotatable=0;points=[[0,0.5],[1,0.5]];portConstraint=eastwest;whiteSpace=wrap;" parent="cphryxpFYoay0DcUjreO-342" vertex="1">
          <mxGeometry y="83" width="290" height="20" as="geometry" />
        </mxCell>
        <mxCell id="cphryxpFYoay0DcUjreO-346" value="СоздатьМодификатор(Модификатор, Напиток)" style="text;html=1;strokeColor=none;fillColor=none;align=left;verticalAlign=middle;spacingLeft=4;spacingRight=4;overflow=hidden;rotatable=0;points=[[0,0.5],[1,0.5]];portConstraint=eastwest;whiteSpace=wrap;" parent="cphryxpFYoay0DcUjreO-342" vertex="1">
          <mxGeometry y="103" width="290" height="20" as="geometry" />
        </mxCell>
        <mxCell id="cphryxpFYoay0DcUjreO-347" value="" style="endArrow=open;startArrow=none;endFill=0;startFill=0;endSize=8;html=1;verticalAlign=bottom;dashed=1;labelBackgroundColor=none;rounded=0;fontSize=12;curved=1;exitX=0.25;exitY=0;exitDx=0;exitDy=0;" parent="1" source="cphryxpFYoay0DcUjreO-342" target="snAX9C6S7c4YlDo4RfjO-11" edge="1">
          <mxGeometry width="160" relative="1" as="geometry">
            <mxPoint x="693" y="3809" as="sourcePoint" />
            <mxPoint x="611" y="3736" as="targetPoint" />
          </mxGeometry>
        </mxCell>
        <mxCell id="cphryxpFYoay0DcUjreO-348" value="argument" style="edgeLabel;html=1;align=center;verticalAlign=middle;resizable=0;points=[];fontSize=12;" parent="cphryxpFYoay0DcUjreO-347" vertex="1" connectable="0">
          <mxGeometry x="-0.6359" y="-2" relative="1" as="geometry">
            <mxPoint as="offset" />
          </mxGeometry>
        </mxCell>
        <mxCell id="cphryxpFYoay0DcUjreO-349" value="" style="endArrow=open;startArrow=none;endFill=0;startFill=0;endSize=8;html=1;verticalAlign=bottom;labelBackgroundColor=none;rounded=0;fontSize=12;curved=1;exitX=0.75;exitY=0;exitDx=0;exitDy=0;dashed=1;entryX=0.464;entryY=1.186;entryDx=0;entryDy=0;entryPerimeter=0;" parent="1" source="cphryxpFYoay0DcUjreO-342" target="snAX9C6S7c4YlDo4RfjO-37" edge="1">
          <mxGeometry width="160" relative="1" as="geometry">
            <mxPoint x="783" y="4019" as="sourcePoint" />
            <mxPoint x="722" y="3732" as="targetPoint" />
          </mxGeometry>
        </mxCell>
        <mxCell id="cphryxpFYoay0DcUjreO-350" value="&amp;lt;&amp;lt;create&amp;gt;&amp;gt;" style="edgeLabel;html=1;align=center;verticalAlign=middle;resizable=0;points=[];fontSize=12;" parent="cphryxpFYoay0DcUjreO-349" vertex="1" connectable="0">
          <mxGeometry x="0.0757" relative="1" as="geometry">
            <mxPoint x="1" as="offset" />
          </mxGeometry>
        </mxCell>
        <mxCell id="cphryxpFYoay0DcUjreO-351" value="" style="endArrow=open;startArrow=none;endFill=0;startFill=0;endSize=8;html=1;verticalAlign=bottom;labelBackgroundColor=none;rounded=0;fontSize=12;curved=1;exitX=0.75;exitY=0;exitDx=0;exitDy=0;entryX=0.103;entryY=1.249;entryDx=0;entryDy=0;entryPerimeter=0;dashed=1;" parent="1" source="cphryxpFYoay0DcUjreO-318" target="cphryxpFYoay0DcUjreO-294" edge="1">
          <mxGeometry width="160" relative="1" as="geometry">
            <mxPoint x="938" y="4175" as="sourcePoint" />
            <mxPoint x="944" y="4069" as="targetPoint" />
          </mxGeometry>
        </mxCell>
        <mxCell id="cphryxpFYoay0DcUjreO-352" value="&amp;lt;&amp;lt;create&amp;gt;&amp;gt;" style="edgeLabel;html=1;align=center;verticalAlign=middle;resizable=0;points=[];fontSize=12;" parent="cphryxpFYoay0DcUjreO-351" vertex="1" connectable="0">
          <mxGeometry x="-0.839" relative="1" as="geometry">
            <mxPoint as="offset" />
          </mxGeometry>
        </mxCell>
        <mxCell id="cphryxpFYoay0DcUjreO-353" value="&lt;div&gt;&amp;lt;&amp;lt;interface&amp;gt;&amp;gt;&lt;i&gt;&lt;b&gt;&lt;br&gt;&lt;/b&gt;&lt;/i&gt;&lt;/div&gt;&lt;span style=&quot;font-weight: 700;&quot;&gt;&lt;i&gt;КофейныйАппарат&lt;/i&gt;&lt;/span&gt;&lt;br&gt;&lt;div&gt;&lt;br&gt;&lt;/div&gt;" style="swimlane;fontStyle=0;align=center;verticalAlign=top;childLayout=stackLayout;horizontal=1;startSize=55;horizontalStack=0;resizeParent=1;resizeParentMax=0;resizeLast=0;collapsible=0;marginBottom=0;html=1;whiteSpace=wrap;" parent="1" vertex="1">
          <mxGeometry x="1143" y="3789" width="270" height="123" as="geometry" />
        </mxCell>
        <mxCell id="cphryxpFYoay0DcUjreO-354" value="attributes" style="text;html=1;strokeColor=none;fillColor=none;align=center;verticalAlign=middle;spacingLeft=4;spacingRight=4;overflow=hidden;rotatable=0;points=[[0,0.5],[1,0.5]];portConstraint=eastwest;whiteSpace=wrap;" parent="cphryxpFYoay0DcUjreO-353" vertex="1">
          <mxGeometry y="55" width="270" height="20" as="geometry" />
        </mxCell>
        <mxCell id="cphryxpFYoay0DcUjreO-355" value="" style="line;strokeWidth=1;fillColor=none;align=left;verticalAlign=middle;spacingTop=-1;spacingLeft=3;spacingRight=3;rotatable=0;labelPosition=right;points=[];portConstraint=eastwest;" parent="cphryxpFYoay0DcUjreO-353" vertex="1">
          <mxGeometry y="75" width="270" height="8" as="geometry" />
        </mxCell>
        <mxCell id="cphryxpFYoay0DcUjreO-356" value="operations" style="text;html=1;strokeColor=none;fillColor=none;align=center;verticalAlign=middle;spacingLeft=4;spacingRight=4;overflow=hidden;rotatable=0;points=[[0,0.5],[1,0.5]];portConstraint=eastwest;whiteSpace=wrap;" parent="cphryxpFYoay0DcUjreO-353" vertex="1">
          <mxGeometry y="83" width="270" height="20" as="geometry" />
        </mxCell>
        <mxCell id="cphryxpFYoay0DcUjreO-357" value="&lt;span style=&quot;text-align: center; background-color: rgb(255, 255, 255);&quot;&gt;&lt;span style=&quot;font-size: 11px; text-wrap: nowrap;&quot;&gt;Приготовить(Программа)&lt;/span&gt;&lt;/span&gt;" style="text;html=1;strokeColor=none;fillColor=none;align=left;verticalAlign=middle;spacingLeft=4;spacingRight=4;overflow=hidden;rotatable=0;points=[[0,0.5],[1,0.5]];portConstraint=eastwest;whiteSpace=wrap;" parent="cphryxpFYoay0DcUjreO-353" vertex="1">
          <mxGeometry y="103" width="270" height="20" as="geometry" />
        </mxCell>
        <mxCell id="cphryxpFYoay0DcUjreO-358" value="" style="html=1;verticalAlign=bottom;labelBackgroundColor=none;endArrow=block;endFill=0;rounded=0;fontSize=12;startSize=8;endSize=8;curved=1;exitX=0.5;exitY=0;exitDx=0;exitDy=0;dashed=1;entryX=0.652;entryY=0.947;entryDx=0;entryDy=0;entryPerimeter=0;" parent="1" source="cphryxpFYoay0DcUjreO-323" target="cphryxpFYoay0DcUjreO-357" edge="1">
          <mxGeometry width="160" relative="1" as="geometry">
            <mxPoint x="1183" y="4096" as="sourcePoint" />
            <mxPoint x="1303" y="3999" as="targetPoint" />
          </mxGeometry>
        </mxCell>
        <mxCell id="cphryxpFYoay0DcUjreO-359" value="" style="endArrow=open;startArrow=none;endFill=0;startFill=0;endSize=8;html=1;verticalAlign=bottom;dashed=1;labelBackgroundColor=none;rounded=0;fontSize=12;curved=1;exitX=1;exitY=0;exitDx=0;exitDy=0;" parent="1" source="cphryxpFYoay0DcUjreO-318" target="cphryxpFYoay0DcUjreO-357" edge="1">
          <mxGeometry width="160" relative="1" as="geometry">
            <mxPoint x="1103" y="4139" as="sourcePoint" />
            <mxPoint x="1055" y="3889" as="targetPoint" />
          </mxGeometry>
        </mxCell>
        <mxCell id="cphryxpFYoay0DcUjreO-360" value="&amp;lt;&amp;lt;call&amp;gt;&amp;gt;" style="edgeLabel;html=1;align=center;verticalAlign=middle;resizable=0;points=[];fontSize=12;" parent="cphryxpFYoay0DcUjreO-359" vertex="1" connectable="0">
          <mxGeometry x="-0.6359" y="-2" relative="1" as="geometry">
            <mxPoint as="offset" />
          </mxGeometry>
        </mxCell>
        <mxCell id="cphryxpFYoay0DcUjreO-368" value="СостояниеГотовкиНапитка" style="swimlane;fontStyle=1;align=center;verticalAlign=middle;childLayout=stackLayout;horizontal=1;startSize=29;horizontalStack=0;resizeParent=1;resizeParentMax=0;resizeLast=0;collapsible=0;marginBottom=0;html=1;whiteSpace=wrap;" parent="1" vertex="1">
          <mxGeometry x="869.5" y="15" width="190" height="54" as="geometry" />
        </mxCell>
        <mxCell id="cphryxpFYoay0DcUjreO-369" style="edgeStyle=orthogonalEdgeStyle;rounded=0;orthogonalLoop=1;jettySize=auto;html=1;endArrow=none;endFill=0;" parent="1" source="cphryxpFYoay0DcUjreO-371" target="cphryxpFYoay0DcUjreO-374" edge="1">
          <mxGeometry relative="1" as="geometry" />
        </mxCell>
        <mxCell id="cphryxpFYoay0DcUjreO-370" value="Взаимодействует" style="edgeLabel;html=1;align=center;verticalAlign=middle;resizable=0;points=[];" parent="cphryxpFYoay0DcUjreO-369" vertex="1" connectable="0">
          <mxGeometry x="-0.4822" y="2" relative="1" as="geometry">
            <mxPoint as="offset" />
          </mxGeometry>
        </mxCell>
        <mxCell id="cphryxpFYoay0DcUjreO-418" value="1" style="edgeLabel;html=1;align=center;verticalAlign=middle;resizable=0;points=[];fontSize=12;" parent="cphryxpFYoay0DcUjreO-369" vertex="1" connectable="0">
          <mxGeometry x="0.6036" y="2" relative="1" as="geometry">
            <mxPoint x="-17" y="8" as="offset" />
          </mxGeometry>
        </mxCell>
        <mxCell id="cphryxpFYoay0DcUjreO-419" value="1" style="edgeLabel;html=1;align=center;verticalAlign=middle;resizable=0;points=[];fontSize=12;" parent="cphryxpFYoay0DcUjreO-369" vertex="1" connectable="0">
          <mxGeometry x="-0.7646" y="2" relative="1" as="geometry">
            <mxPoint x="-17" as="offset" />
          </mxGeometry>
        </mxCell>
        <mxCell id="cphryxpFYoay0DcUjreO-371" value="Покупатель" style="swimlane;fontStyle=1;align=center;verticalAlign=middle;childLayout=stackLayout;horizontal=1;startSize=29;horizontalStack=0;resizeParent=1;resizeParentMax=0;resizeLast=0;collapsible=0;marginBottom=0;html=1;whiteSpace=wrap;" parent="1" vertex="1">
          <mxGeometry x="634.5" y="-60" width="140" height="54" as="geometry" />
        </mxCell>
        <mxCell id="cphryxpFYoay0DcUjreO-372" style="edgeStyle=orthogonalEdgeStyle;rounded=0;orthogonalLoop=1;jettySize=auto;html=1;exitX=0;exitY=0.25;exitDx=0;exitDy=0;endArrow=none;endFill=0;" parent="1" source="cphryxpFYoay0DcUjreO-374" target="cphryxpFYoay0DcUjreO-396" edge="1">
          <mxGeometry relative="1" as="geometry">
            <mxPoint x="559.5" y="76" as="sourcePoint" />
          </mxGeometry>
        </mxCell>
        <mxCell id="cphryxpFYoay0DcUjreO-410" value="1" style="edgeLabel;html=1;align=center;verticalAlign=middle;resizable=0;points=[];fontSize=12;" parent="cphryxpFYoay0DcUjreO-372" vertex="1" connectable="0">
          <mxGeometry x="-0.9373" y="3" relative="1" as="geometry">
            <mxPoint x="1" y="-16" as="offset" />
          </mxGeometry>
        </mxCell>
        <mxCell id="cphryxpFYoay0DcUjreO-411" value="*" style="edgeLabel;html=1;align=center;verticalAlign=middle;resizable=0;points=[];fontSize=12;" parent="cphryxpFYoay0DcUjreO-372" vertex="1" connectable="0">
          <mxGeometry x="0.9106" y="-4" relative="1" as="geometry">
            <mxPoint x="-11" y="6" as="offset" />
          </mxGeometry>
        </mxCell>
        <mxCell id="cphryxpFYoay0DcUjreO-373" style="edgeStyle=orthogonalEdgeStyle;rounded=0;orthogonalLoop=1;jettySize=auto;html=1;exitX=0;exitY=0.75;exitDx=0;exitDy=0;endArrow=none;endFill=0;" parent="1" source="cphryxpFYoay0DcUjreO-374" target="cphryxpFYoay0DcUjreO-381" edge="1">
          <mxGeometry relative="1" as="geometry">
            <Array as="points">
              <mxPoint x="254.5" y="176" />
            </Array>
            <mxPoint x="609.5" y="116" as="sourcePoint" />
          </mxGeometry>
        </mxCell>
        <mxCell id="cphryxpFYoay0DcUjreO-416" value="1" style="edgeLabel;html=1;align=center;verticalAlign=middle;resizable=0;points=[];fontSize=12;" parent="cphryxpFYoay0DcUjreO-373" vertex="1" connectable="0">
          <mxGeometry x="0.9226" y="-5" relative="1" as="geometry">
            <mxPoint x="-10" as="offset" />
          </mxGeometry>
        </mxCell>
        <mxCell id="cphryxpFYoay0DcUjreO-417" value="1" style="edgeLabel;html=1;align=center;verticalAlign=middle;resizable=0;points=[];fontSize=12;" parent="cphryxpFYoay0DcUjreO-373" vertex="1" connectable="0">
          <mxGeometry x="-0.8835" y="3" relative="1" as="geometry">
            <mxPoint x="19" y="-14" as="offset" />
          </mxGeometry>
        </mxCell>
        <mxCell id="cphryxpFYoay0DcUjreO-374" value="СистемаВвода" style="swimlane;fontStyle=1;align=center;verticalAlign=middle;childLayout=stackLayout;horizontal=1;startSize=29;horizontalStack=0;resizeParent=1;resizeParentMax=0;resizeLast=0;collapsible=0;marginBottom=0;html=1;whiteSpace=wrap;" parent="1" vertex="1">
          <mxGeometry x="634.5" y="136" width="140" height="54" as="geometry" />
        </mxCell>
        <mxCell id="cphryxpFYoay0DcUjreO-375" value="КофейныйАппарат" style="swimlane;fontStyle=1;align=center;verticalAlign=middle;childLayout=stackLayout;horizontal=1;startSize=29;horizontalStack=0;resizeParent=1;resizeParentMax=0;resizeLast=0;collapsible=0;marginBottom=0;html=1;whiteSpace=wrap;" parent="1" vertex="1">
          <mxGeometry x="625.5" y="455" width="140" height="54" as="geometry" />
        </mxCell>
        <mxCell id="cphryxpFYoay0DcUjreO-376" value="КомандаКофейномуАппарату" style="swimlane;fontStyle=1;align=center;verticalAlign=middle;childLayout=stackLayout;horizontal=1;startSize=29;horizontalStack=0;resizeParent=1;resizeParentMax=0;resizeLast=0;collapsible=0;marginBottom=0;html=1;whiteSpace=wrap;" parent="1" vertex="1">
          <mxGeometry x="595.5" y="345" width="200" height="60" as="geometry" />
        </mxCell>
        <mxCell id="cphryxpFYoay0DcUjreO-377" value="" style="endArrow=none;startArrow=none;endFill=0;startFill=0;endSize=8;html=1;verticalAlign=bottom;labelBackgroundColor=none;strokeWidth=1;rounded=0;exitX=0.5;exitY=1;exitDx=0;exitDy=0;entryX=0.5;entryY=0;entryDx=0;entryDy=0;" parent="1" source="cphryxpFYoay0DcUjreO-376" target="cphryxpFYoay0DcUjreO-375" edge="1">
          <mxGeometry width="160" relative="1" as="geometry">
            <mxPoint x="855.5" y="475" as="sourcePoint" />
            <mxPoint x="855.5" y="561" as="targetPoint" />
          </mxGeometry>
        </mxCell>
        <mxCell id="cphryxpFYoay0DcUjreO-378" value="Передается" style="edgeLabel;html=1;align=center;verticalAlign=middle;resizable=0;points=[];" parent="cphryxpFYoay0DcUjreO-377" vertex="1" connectable="0">
          <mxGeometry x="0.0914" y="-1" relative="1" as="geometry">
            <mxPoint x="41" as="offset" />
          </mxGeometry>
        </mxCell>
        <mxCell id="cphryxpFYoay0DcUjreO-379" value="1" style="edgeLabel;html=1;align=center;verticalAlign=middle;resizable=0;points=[];" parent="cphryxpFYoay0DcUjreO-377" vertex="1" connectable="0">
          <mxGeometry x="0.4914" relative="1" as="geometry">
            <mxPoint x="-10" y="3" as="offset" />
          </mxGeometry>
        </mxCell>
        <mxCell id="cphryxpFYoay0DcUjreO-380" value="*" style="edgeLabel;html=1;align=center;verticalAlign=middle;resizable=0;points=[];" parent="cphryxpFYoay0DcUjreO-377" vertex="1" connectable="0">
          <mxGeometry x="-0.5086" relative="1" as="geometry">
            <mxPoint x="-10" as="offset" />
          </mxGeometry>
        </mxCell>
        <mxCell id="cphryxpFYoay0DcUjreO-381" value="Напиток" style="swimlane;fontStyle=1;align=center;verticalAlign=middle;childLayout=stackLayout;horizontal=1;startSize=29;horizontalStack=0;resizeParent=1;resizeParentMax=0;resizeLast=0;collapsible=0;marginBottom=0;html=1;whiteSpace=wrap;" parent="1" vertex="1">
          <mxGeometry x="184.5" y="376" width="140" height="60" as="geometry" />
        </mxCell>
        <mxCell id="cphryxpFYoay0DcUjreO-384" value="Рецептура" style="swimlane;fontStyle=1;align=center;verticalAlign=middle;childLayout=stackLayout;horizontal=1;startSize=29;horizontalStack=0;resizeParent=1;resizeParentMax=0;resizeLast=0;collapsible=0;marginBottom=0;html=1;whiteSpace=wrap;" parent="1" vertex="1">
          <mxGeometry x="184.5" y="486" width="140" height="54" as="geometry" />
        </mxCell>
        <mxCell id="cphryxpFYoay0DcUjreO-385" value="Ингредиент" style="swimlane;fontStyle=1;align=center;verticalAlign=middle;childLayout=stackLayout;horizontal=1;startSize=29;horizontalStack=0;resizeParent=1;resizeParentMax=0;resizeLast=0;collapsible=0;marginBottom=0;html=1;whiteSpace=wrap;" parent="1" vertex="1">
          <mxGeometry x="184.5" y="596" width="140" height="59" as="geometry" />
        </mxCell>
        <mxCell id="cphryxpFYoay0DcUjreO-386" value="" style="endArrow=none;startArrow=none;endFill=0;startFill=0;endSize=8;html=1;verticalAlign=bottom;labelBackgroundColor=none;strokeWidth=1;rounded=0;exitX=0.5;exitY=1;exitDx=0;exitDy=0;entryX=0.5;entryY=0;entryDx=0;entryDy=0;" parent="1" source="cphryxpFYoay0DcUjreO-381" target="cphryxpFYoay0DcUjreO-384" edge="1">
          <mxGeometry width="160" relative="1" as="geometry">
            <mxPoint x="224.5" y="440" as="sourcePoint" />
            <mxPoint x="224.5" y="486" as="targetPoint" />
          </mxGeometry>
        </mxCell>
        <mxCell id="cphryxpFYoay0DcUjreO-387" value="Готовится по" style="edgeLabel;html=1;align=center;verticalAlign=middle;resizable=0;points=[];" parent="cphryxpFYoay0DcUjreO-386" vertex="1" connectable="0">
          <mxGeometry x="-0.118" y="1" relative="1" as="geometry">
            <mxPoint x="39" as="offset" />
          </mxGeometry>
        </mxCell>
        <mxCell id="cphryxpFYoay0DcUjreO-388" value="1" style="edgeLabel;html=1;align=center;verticalAlign=middle;resizable=0;points=[];" parent="cphryxpFYoay0DcUjreO-386" vertex="1" connectable="0">
          <mxGeometry x="0.4914" y="-2" relative="1" as="geometry">
            <mxPoint x="-8" as="offset" />
          </mxGeometry>
        </mxCell>
        <mxCell id="cphryxpFYoay0DcUjreO-389" value="1" style="edgeLabel;html=1;align=center;verticalAlign=middle;resizable=0;points=[];" parent="cphryxpFYoay0DcUjreO-386" vertex="1" connectable="0">
          <mxGeometry x="-0.5086" relative="1" as="geometry">
            <mxPoint x="-10" as="offset" />
          </mxGeometry>
        </mxCell>
        <mxCell id="cphryxpFYoay0DcUjreO-390" value="" style="endArrow=none;startArrow=none;endFill=0;startFill=0;endSize=8;html=1;verticalAlign=bottom;labelBackgroundColor=none;strokeWidth=1;rounded=0;exitX=0.5;exitY=1;exitDx=0;exitDy=0;entryX=0.5;entryY=0;entryDx=0;entryDy=0;" parent="1" source="cphryxpFYoay0DcUjreO-384" target="cphryxpFYoay0DcUjreO-385" edge="1">
          <mxGeometry width="160" relative="1" as="geometry">
            <mxPoint x="248.5" y="574" as="sourcePoint" />
            <mxPoint x="248.5" y="630" as="targetPoint" />
            <Array as="points" />
          </mxGeometry>
        </mxCell>
        <mxCell id="cphryxpFYoay0DcUjreO-391" value="Состоит из" style="edgeLabel;html=1;align=center;verticalAlign=middle;resizable=0;points=[];" parent="cphryxpFYoay0DcUjreO-390" vertex="1" connectable="0">
          <mxGeometry x="-0.118" y="1" relative="1" as="geometry">
            <mxPoint x="39" as="offset" />
          </mxGeometry>
        </mxCell>
        <mxCell id="cphryxpFYoay0DcUjreO-392" value="1" style="edgeLabel;html=1;align=center;verticalAlign=middle;resizable=0;points=[];" parent="cphryxpFYoay0DcUjreO-390" vertex="1" connectable="0">
          <mxGeometry x="-0.5969" y="1" relative="1" as="geometry">
            <mxPoint x="-11" as="offset" />
          </mxGeometry>
        </mxCell>
        <mxCell id="cphryxpFYoay0DcUjreO-393" value="*" style="edgeLabel;html=1;align=center;verticalAlign=middle;resizable=0;points=[];" parent="cphryxpFYoay0DcUjreO-390" vertex="1" connectable="0">
          <mxGeometry x="0.5459" relative="1" as="geometry">
            <mxPoint x="-10" as="offset" />
          </mxGeometry>
        </mxCell>
        <mxCell id="cphryxpFYoay0DcUjreO-394" style="edgeStyle=orthogonalEdgeStyle;rounded=0;orthogonalLoop=1;jettySize=auto;html=1;entryX=0;entryY=0.5;entryDx=0;entryDy=0;endArrow=none;endFill=0;" parent="1" source="cphryxpFYoay0DcUjreO-396" target="cphryxpFYoay0DcUjreO-384" edge="1">
          <mxGeometry relative="1" as="geometry">
            <Array as="points">
              <mxPoint x="139.5" y="513" />
            </Array>
          </mxGeometry>
        </mxCell>
        <mxCell id="cphryxpFYoay0DcUjreO-395" value="Меняет" style="edgeLabel;html=1;align=center;verticalAlign=middle;resizable=0;points=[];" parent="cphryxpFYoay0DcUjreO-394" vertex="1" connectable="0">
          <mxGeometry x="-0.4478" relative="1" as="geometry">
            <mxPoint x="1" as="offset" />
          </mxGeometry>
        </mxCell>
        <mxCell id="cphryxpFYoay0DcUjreO-408" value="1" style="edgeLabel;html=1;align=center;verticalAlign=middle;resizable=0;points=[];fontSize=12;" parent="cphryxpFYoay0DcUjreO-394" vertex="1" connectable="0">
          <mxGeometry x="0.8809" y="1" relative="1" as="geometry">
            <mxPoint x="1" y="-16" as="offset" />
          </mxGeometry>
        </mxCell>
        <mxCell id="cphryxpFYoay0DcUjreO-409" value="1" style="edgeLabel;html=1;align=center;verticalAlign=middle;resizable=0;points=[];fontSize=12;" parent="cphryxpFYoay0DcUjreO-394" vertex="1" connectable="0">
          <mxGeometry x="-0.8955" relative="1" as="geometry">
            <mxPoint x="-10" as="offset" />
          </mxGeometry>
        </mxCell>
        <mxCell id="cphryxpFYoay0DcUjreO-396" value="Модификатор" style="swimlane;fontStyle=1;align=center;verticalAlign=middle;childLayout=stackLayout;horizontal=1;startSize=29;horizontalStack=0;resizeParent=1;resizeParentMax=0;resizeLast=0;collapsible=0;marginBottom=0;html=1;whiteSpace=wrap;" parent="1" vertex="1">
          <mxGeometry x="64.5" y="225" width="140" height="54" as="geometry" />
        </mxCell>
        <mxCell id="cphryxpFYoay0DcUjreO-397" value="" style="endArrow=none;startArrow=none;endFill=0;startFill=0;endSize=8;html=1;verticalAlign=bottom;dashed=1;labelBackgroundColor=none;dashPattern=10 10;rounded=0;" parent="1" edge="1">
          <mxGeometry x="-0.025" y="10" width="160" relative="1" as="geometry">
            <mxPoint y="690" as="sourcePoint" />
            <mxPoint x="1154.5" y="690" as="targetPoint" />
            <mxPoint as="offset" />
          </mxGeometry>
        </mxCell>
        <mxCell id="cphryxpFYoay0DcUjreO-398" value="" style="endArrow=none;startArrow=none;endFill=0;startFill=0;endSize=8;html=1;verticalAlign=bottom;labelBackgroundColor=none;strokeWidth=1;rounded=0;exitX=0.75;exitY=0;exitDx=0;exitDy=0;edgeStyle=orthogonalEdgeStyle;entryX=0.5;entryY=1;entryDx=0;entryDy=0;" parent="1" source="cphryxpFYoay0DcUjreO-374" target="cphryxpFYoay0DcUjreO-368" edge="1">
          <mxGeometry width="160" relative="1" as="geometry">
            <mxPoint x="599.25" y="89" as="sourcePoint" />
            <mxPoint x="1109.5" y="76" as="targetPoint" />
            <Array as="points">
              <mxPoint x="739.5" y="103" />
              <mxPoint x="964.5" y="103" />
            </Array>
          </mxGeometry>
        </mxCell>
        <mxCell id="cphryxpFYoay0DcUjreO-399" value="Отображает" style="edgeLabel;html=1;align=center;verticalAlign=middle;resizable=0;points=[];" parent="cphryxpFYoay0DcUjreO-398" vertex="1" connectable="0">
          <mxGeometry x="-0.118" y="1" relative="1" as="geometry">
            <mxPoint x="-13" y="-16" as="offset" />
          </mxGeometry>
        </mxCell>
        <mxCell id="cphryxpFYoay0DcUjreO-400" value="*" style="edgeLabel;html=1;align=center;verticalAlign=middle;resizable=0;points=[];" parent="cphryxpFYoay0DcUjreO-398" vertex="1" connectable="0">
          <mxGeometry x="0.7505" y="2" relative="1" as="geometry">
            <mxPoint x="-15" y="-15" as="offset" />
          </mxGeometry>
        </mxCell>
        <mxCell id="cphryxpFYoay0DcUjreO-401" value="1" style="edgeLabel;html=1;align=center;verticalAlign=middle;resizable=0;points=[];" parent="cphryxpFYoay0DcUjreO-398" vertex="1" connectable="0">
          <mxGeometry x="-0.8095" y="1" relative="1" as="geometry">
            <mxPoint x="21" y="-23" as="offset" />
          </mxGeometry>
        </mxCell>
        <mxCell id="cphryxpFYoay0DcUjreO-405" style="edgeStyle=orthogonalEdgeStyle;rounded=0;orthogonalLoop=1;jettySize=auto;html=1;entryX=0.32;entryY=0.017;entryDx=0;entryDy=0;entryPerimeter=0;endArrow=none;endFill=0;exitX=1;exitY=0.5;exitDx=0;exitDy=0;" parent="1" source="cphryxpFYoay0DcUjreO-384" target="cphryxpFYoay0DcUjreO-376" edge="1">
          <mxGeometry relative="1" as="geometry">
            <mxPoint x="529.5" y="226.090909090909" as="sourcePoint" />
          </mxGeometry>
        </mxCell>
        <mxCell id="cphryxpFYoay0DcUjreO-406" value="Генерирует" style="edgeLabel;html=1;align=center;verticalAlign=middle;resizable=0;points=[];" parent="cphryxpFYoay0DcUjreO-405" vertex="1" connectable="0">
          <mxGeometry x="-0.2547" relative="1" as="geometry">
            <mxPoint as="offset" />
          </mxGeometry>
        </mxCell>
        <mxCell id="cphryxpFYoay0DcUjreO-414" value="1" style="edgeLabel;html=1;align=center;verticalAlign=middle;resizable=0;points=[];fontSize=12;" parent="cphryxpFYoay0DcUjreO-405" vertex="1" connectable="0">
          <mxGeometry x="-0.7837" y="2" relative="1" as="geometry">
            <mxPoint y="-8" as="offset" />
          </mxGeometry>
        </mxCell>
        <mxCell id="cphryxpFYoay0DcUjreO-415" value="*" style="edgeLabel;html=1;align=center;verticalAlign=middle;resizable=0;points=[];fontSize=12;" parent="cphryxpFYoay0DcUjreO-405" vertex="1" connectable="0">
          <mxGeometry x="0.8082" y="-2" relative="1" as="geometry">
            <mxPoint x="17" y="-8" as="offset" />
          </mxGeometry>
        </mxCell>
        <mxCell id="cphryxpFYoay0DcUjreO-420" value="СостояниеГотовкиНапитка" style="swimlane;fontStyle=1;align=center;verticalAlign=middle;childLayout=stackLayout;horizontal=1;startSize=29;horizontalStack=0;resizeParent=1;resizeParentMax=0;resizeLast=0;collapsible=0;marginBottom=0;html=1;whiteSpace=wrap;" parent="1" vertex="1">
          <mxGeometry x="845" y="885" width="190" height="54" as="geometry" />
        </mxCell>
        <mxCell id="cphryxpFYoay0DcUjreO-421" style="edgeStyle=orthogonalEdgeStyle;rounded=0;orthogonalLoop=1;jettySize=auto;html=1;endArrow=none;endFill=0;" parent="1" source="cphryxpFYoay0DcUjreO-425" target="cphryxpFYoay0DcUjreO-432" edge="1">
          <mxGeometry relative="1" as="geometry" />
        </mxCell>
        <mxCell id="cphryxpFYoay0DcUjreO-422" value="Взаимодействует" style="edgeLabel;html=1;align=center;verticalAlign=middle;resizable=0;points=[];" parent="cphryxpFYoay0DcUjreO-421" vertex="1" connectable="0">
          <mxGeometry x="-0.4822" y="2" relative="1" as="geometry">
            <mxPoint as="offset" />
          </mxGeometry>
        </mxCell>
        <mxCell id="cphryxpFYoay0DcUjreO-423" value="1" style="edgeLabel;html=1;align=center;verticalAlign=middle;resizable=0;points=[];fontSize=12;" parent="cphryxpFYoay0DcUjreO-421" vertex="1" connectable="0">
          <mxGeometry x="0.6036" y="2" relative="1" as="geometry">
            <mxPoint x="-17" y="8" as="offset" />
          </mxGeometry>
        </mxCell>
        <mxCell id="cphryxpFYoay0DcUjreO-424" value="1" style="edgeLabel;html=1;align=center;verticalAlign=middle;resizable=0;points=[];fontSize=12;" parent="cphryxpFYoay0DcUjreO-421" vertex="1" connectable="0">
          <mxGeometry x="-0.7646" y="2" relative="1" as="geometry">
            <mxPoint x="-17" as="offset" />
          </mxGeometry>
        </mxCell>
        <mxCell id="cphryxpFYoay0DcUjreO-425" value="Покупатель" style="swimlane;fontStyle=1;align=center;verticalAlign=middle;childLayout=stackLayout;horizontal=1;startSize=29;horizontalStack=0;resizeParent=1;resizeParentMax=0;resizeLast=0;collapsible=0;marginBottom=0;html=1;whiteSpace=wrap;" parent="1" vertex="1">
          <mxGeometry x="610" y="810" width="140" height="54" as="geometry" />
        </mxCell>
        <mxCell id="cphryxpFYoay0DcUjreO-426" style="edgeStyle=orthogonalEdgeStyle;rounded=0;orthogonalLoop=1;jettySize=auto;html=1;exitX=0;exitY=0.25;exitDx=0;exitDy=0;endArrow=none;endFill=0;" parent="1" source="cphryxpFYoay0DcUjreO-432" target="cphryxpFYoay0DcUjreO-458" edge="1">
          <mxGeometry relative="1" as="geometry">
            <mxPoint x="535" y="946" as="sourcePoint" />
          </mxGeometry>
        </mxCell>
        <mxCell id="cphryxpFYoay0DcUjreO-427" value="1" style="edgeLabel;html=1;align=center;verticalAlign=middle;resizable=0;points=[];fontSize=12;" parent="cphryxpFYoay0DcUjreO-426" vertex="1" connectable="0">
          <mxGeometry x="-0.9373" y="3" relative="1" as="geometry">
            <mxPoint x="1" y="-16" as="offset" />
          </mxGeometry>
        </mxCell>
        <mxCell id="cphryxpFYoay0DcUjreO-428" value="*" style="edgeLabel;html=1;align=center;verticalAlign=middle;resizable=0;points=[];fontSize=12;" parent="cphryxpFYoay0DcUjreO-426" vertex="1" connectable="0">
          <mxGeometry x="0.9106" y="-4" relative="1" as="geometry">
            <mxPoint x="-11" y="6" as="offset" />
          </mxGeometry>
        </mxCell>
        <mxCell id="cphryxpFYoay0DcUjreO-429" style="edgeStyle=orthogonalEdgeStyle;rounded=0;orthogonalLoop=1;jettySize=auto;html=1;exitX=0;exitY=0.75;exitDx=0;exitDy=0;endArrow=none;endFill=0;" parent="1" source="cphryxpFYoay0DcUjreO-432" target="cphryxpFYoay0DcUjreO-439" edge="1">
          <mxGeometry relative="1" as="geometry">
            <Array as="points">
              <mxPoint x="230" y="1046" />
            </Array>
            <mxPoint x="585" y="986" as="sourcePoint" />
          </mxGeometry>
        </mxCell>
        <mxCell id="cphryxpFYoay0DcUjreO-430" value="1" style="edgeLabel;html=1;align=center;verticalAlign=middle;resizable=0;points=[];fontSize=12;" parent="cphryxpFYoay0DcUjreO-429" vertex="1" connectable="0">
          <mxGeometry x="0.9226" y="-5" relative="1" as="geometry">
            <mxPoint x="-10" as="offset" />
          </mxGeometry>
        </mxCell>
        <mxCell id="cphryxpFYoay0DcUjreO-431" value="1" style="edgeLabel;html=1;align=center;verticalAlign=middle;resizable=0;points=[];fontSize=12;" parent="cphryxpFYoay0DcUjreO-429" vertex="1" connectable="0">
          <mxGeometry x="-0.8835" y="3" relative="1" as="geometry">
            <mxPoint x="19" y="-14" as="offset" />
          </mxGeometry>
        </mxCell>
        <mxCell id="cphryxpFYoay0DcUjreO-432" value="СистемаВвода" style="swimlane;fontStyle=1;align=center;verticalAlign=middle;childLayout=stackLayout;horizontal=1;startSize=29;horizontalStack=0;resizeParent=1;resizeParentMax=0;resizeLast=0;collapsible=0;marginBottom=0;html=1;whiteSpace=wrap;" parent="1" vertex="1">
          <mxGeometry x="610" y="1006" width="140" height="54" as="geometry" />
        </mxCell>
        <mxCell id="cphryxpFYoay0DcUjreO-433" value="КофейныйАппарат" style="swimlane;fontStyle=1;align=center;verticalAlign=middle;childLayout=stackLayout;horizontal=1;startSize=29;horizontalStack=0;resizeParent=1;resizeParentMax=0;resizeLast=0;collapsible=0;marginBottom=0;html=1;whiteSpace=wrap;" parent="1" vertex="1">
          <mxGeometry x="600" y="1397" width="140" height="54" as="geometry" />
        </mxCell>
        <mxCell id="cphryxpFYoay0DcUjreO-434" value="КомандаКофейномуАппарату" style="swimlane;fontStyle=1;align=center;verticalAlign=middle;childLayout=stackLayout;horizontal=1;startSize=29;horizontalStack=0;resizeParent=1;resizeParentMax=0;resizeLast=0;collapsible=0;marginBottom=0;html=1;whiteSpace=wrap;" parent="1" vertex="1">
          <mxGeometry x="570" y="1240" width="200" height="89" as="geometry" />
        </mxCell>
        <mxCell id="cphryxpFYoay0DcUjreO-485" value="КодКоманды" style="text;html=1;align=center;verticalAlign=middle;whiteSpace=wrap;rounded=0;" parent="cphryxpFYoay0DcUjreO-434" vertex="1">
          <mxGeometry y="29" width="200" height="30" as="geometry" />
        </mxCell>
        <mxCell id="cphryxpFYoay0DcUjreO-486" value="АргументКоманды" style="text;html=1;align=center;verticalAlign=middle;whiteSpace=wrap;rounded=0;" parent="cphryxpFYoay0DcUjreO-434" vertex="1">
          <mxGeometry y="59" width="200" height="30" as="geometry" />
        </mxCell>
        <mxCell id="cphryxpFYoay0DcUjreO-435" value="" style="endArrow=none;startArrow=none;endFill=0;startFill=0;endSize=8;html=1;verticalAlign=bottom;labelBackgroundColor=none;strokeWidth=1;rounded=0;exitX=0.5;exitY=1;exitDx=0;exitDy=0;entryX=0.5;entryY=0;entryDx=0;entryDy=0;" parent="1" source="cphryxpFYoay0DcUjreO-434" target="cphryxpFYoay0DcUjreO-433" edge="1">
          <mxGeometry width="160" relative="1" as="geometry">
            <mxPoint x="830" y="1370" as="sourcePoint" />
            <mxPoint x="830" y="1456" as="targetPoint" />
          </mxGeometry>
        </mxCell>
        <mxCell id="cphryxpFYoay0DcUjreO-436" value="Передается" style="edgeLabel;html=1;align=center;verticalAlign=middle;resizable=0;points=[];" parent="cphryxpFYoay0DcUjreO-435" vertex="1" connectable="0">
          <mxGeometry x="0.0914" y="-1" relative="1" as="geometry">
            <mxPoint x="41" as="offset" />
          </mxGeometry>
        </mxCell>
        <mxCell id="cphryxpFYoay0DcUjreO-437" value="1" style="edgeLabel;html=1;align=center;verticalAlign=middle;resizable=0;points=[];" parent="cphryxpFYoay0DcUjreO-435" vertex="1" connectable="0">
          <mxGeometry x="0.4914" relative="1" as="geometry">
            <mxPoint x="-10" y="3" as="offset" />
          </mxGeometry>
        </mxCell>
        <mxCell id="cphryxpFYoay0DcUjreO-438" value="*" style="edgeLabel;html=1;align=center;verticalAlign=middle;resizable=0;points=[];" parent="cphryxpFYoay0DcUjreO-435" vertex="1" connectable="0">
          <mxGeometry x="-0.5086" relative="1" as="geometry">
            <mxPoint x="-10" as="offset" />
          </mxGeometry>
        </mxCell>
        <mxCell id="cphryxpFYoay0DcUjreO-439" value="Напиток" style="swimlane;fontStyle=1;align=center;verticalAlign=middle;childLayout=stackLayout;horizontal=1;startSize=29;horizontalStack=0;resizeParent=1;resizeParentMax=0;resizeLast=0;collapsible=0;marginBottom=0;html=1;whiteSpace=wrap;" parent="1" vertex="1">
          <mxGeometry x="160" y="1246" width="140" height="59" as="geometry" />
        </mxCell>
        <mxCell id="cphryxpFYoay0DcUjreO-482" value="Название" style="text;html=1;align=center;verticalAlign=middle;whiteSpace=wrap;rounded=0;" parent="cphryxpFYoay0DcUjreO-439" vertex="1">
          <mxGeometry y="29" width="140" height="30" as="geometry" />
        </mxCell>
        <mxCell id="cphryxpFYoay0DcUjreO-440" style="edgeStyle=orthogonalEdgeStyle;rounded=0;orthogonalLoop=1;jettySize=auto;html=1;endArrow=none;endFill=0;entryX=0;entryY=0.5;entryDx=0;entryDy=0;" parent="1" source="cphryxpFYoay0DcUjreO-444" target="cphryxpFYoay0DcUjreO-478" edge="1">
          <mxGeometry relative="1" as="geometry">
            <mxPoint x="455" y="1126" as="targetPoint" />
            <Array as="points">
              <mxPoint x="425" y="1383" />
              <mxPoint x="425" y="1126" />
              <mxPoint x="474" y="1126" />
            </Array>
          </mxGeometry>
        </mxCell>
        <mxCell id="cphryxpFYoay0DcUjreO-441" value="ФормируетсяПо" style="edgeLabel;html=1;align=center;verticalAlign=middle;resizable=0;points=[];" parent="cphryxpFYoay0DcUjreO-440" vertex="1" connectable="0">
          <mxGeometry x="-0.0888" y="-3" relative="1" as="geometry">
            <mxPoint as="offset" />
          </mxGeometry>
        </mxCell>
        <mxCell id="cphryxpFYoay0DcUjreO-442" value="1" style="edgeLabel;html=1;align=center;verticalAlign=middle;resizable=0;points=[];fontSize=12;" parent="cphryxpFYoay0DcUjreO-440" vertex="1" connectable="0">
          <mxGeometry x="-0.9211" y="1" relative="1" as="geometry">
            <mxPoint x="1" y="-16" as="offset" />
          </mxGeometry>
        </mxCell>
        <mxCell id="cphryxpFYoay0DcUjreO-443" value="1" style="edgeLabel;html=1;align=center;verticalAlign=middle;resizable=0;points=[];fontSize=12;" parent="cphryxpFYoay0DcUjreO-440" vertex="1" connectable="0">
          <mxGeometry x="0.7552" y="-1" relative="1" as="geometry">
            <mxPoint x="-20" y="-11" as="offset" />
          </mxGeometry>
        </mxCell>
        <mxCell id="cphryxpFYoay0DcUjreO-444" value="Рецептура" style="swimlane;fontStyle=1;align=center;verticalAlign=middle;childLayout=stackLayout;horizontal=1;startSize=29;horizontalStack=0;resizeParent=1;resizeParentMax=0;resizeLast=0;collapsible=0;marginBottom=0;html=1;whiteSpace=wrap;" parent="1" vertex="1">
          <mxGeometry x="160" y="1356" width="140" height="59" as="geometry" />
        </mxCell>
        <mxCell id="cphryxpFYoay0DcUjreO-483" value="Название" style="text;html=1;align=center;verticalAlign=middle;whiteSpace=wrap;rounded=0;" parent="cphryxpFYoay0DcUjreO-444" vertex="1">
          <mxGeometry y="29" width="140" height="30" as="geometry" />
        </mxCell>
        <mxCell id="cphryxpFYoay0DcUjreO-445" value="Ингредиент" style="swimlane;fontStyle=1;align=center;verticalAlign=middle;childLayout=stackLayout;horizontal=1;startSize=29;horizontalStack=0;resizeParent=1;resizeParentMax=0;resizeLast=0;collapsible=0;marginBottom=0;html=1;whiteSpace=wrap;" parent="1" vertex="1">
          <mxGeometry x="160" y="1650" width="140" height="59" as="geometry" />
        </mxCell>
        <mxCell id="cphryxpFYoay0DcUjreO-484" value="Название" style="text;html=1;align=center;verticalAlign=middle;whiteSpace=wrap;rounded=0;" parent="cphryxpFYoay0DcUjreO-445" vertex="1">
          <mxGeometry y="29" width="140" height="30" as="geometry" />
        </mxCell>
        <mxCell id="cphryxpFYoay0DcUjreO-446" value="" style="endArrow=none;startArrow=none;endFill=0;startFill=0;endSize=8;html=1;verticalAlign=bottom;labelBackgroundColor=none;strokeWidth=1;rounded=0;exitX=0.5;exitY=1;exitDx=0;exitDy=0;entryX=0.5;entryY=0;entryDx=0;entryDy=0;" parent="1" source="cphryxpFYoay0DcUjreO-439" target="cphryxpFYoay0DcUjreO-444" edge="1">
          <mxGeometry width="160" relative="1" as="geometry">
            <mxPoint x="200" y="1310" as="sourcePoint" />
            <mxPoint x="200" y="1356" as="targetPoint" />
          </mxGeometry>
        </mxCell>
        <mxCell id="cphryxpFYoay0DcUjreO-447" value="Готовится по" style="edgeLabel;html=1;align=center;verticalAlign=middle;resizable=0;points=[];" parent="cphryxpFYoay0DcUjreO-446" vertex="1" connectable="0">
          <mxGeometry x="-0.118" y="1" relative="1" as="geometry">
            <mxPoint x="39" as="offset" />
          </mxGeometry>
        </mxCell>
        <mxCell id="cphryxpFYoay0DcUjreO-448" value="1" style="edgeLabel;html=1;align=center;verticalAlign=middle;resizable=0;points=[];" parent="cphryxpFYoay0DcUjreO-446" vertex="1" connectable="0">
          <mxGeometry x="0.4914" y="-2" relative="1" as="geometry">
            <mxPoint x="-8" as="offset" />
          </mxGeometry>
        </mxCell>
        <mxCell id="cphryxpFYoay0DcUjreO-449" value="1" style="edgeLabel;html=1;align=center;verticalAlign=middle;resizable=0;points=[];" parent="cphryxpFYoay0DcUjreO-446" vertex="1" connectable="0">
          <mxGeometry x="-0.5086" relative="1" as="geometry">
            <mxPoint x="-10" as="offset" />
          </mxGeometry>
        </mxCell>
        <mxCell id="cphryxpFYoay0DcUjreO-450" value="" style="endArrow=none;startArrow=diamond;endFill=0;startFill=1;endSize=8;html=1;verticalAlign=bottom;labelBackgroundColor=none;strokeWidth=1;rounded=0;exitX=0.5;exitY=1;exitDx=0;exitDy=0;entryX=0.5;entryY=0;entryDx=0;entryDy=0;" parent="1" source="cphryxpFYoay0DcUjreO-444" target="cphryxpFYoay0DcUjreO-469" edge="1">
          <mxGeometry width="160" relative="1" as="geometry">
            <mxPoint x="224" y="1444" as="sourcePoint" />
            <mxPoint x="230" y="1650" as="targetPoint" />
            <Array as="points" />
          </mxGeometry>
        </mxCell>
        <mxCell id="cphryxpFYoay0DcUjreO-451" value="Состоит из" style="edgeLabel;html=1;align=center;verticalAlign=middle;resizable=0;points=[];" parent="cphryxpFYoay0DcUjreO-450" vertex="1" connectable="0">
          <mxGeometry x="-0.118" y="1" relative="1" as="geometry">
            <mxPoint x="39" as="offset" />
          </mxGeometry>
        </mxCell>
        <mxCell id="cphryxpFYoay0DcUjreO-452" value="1" style="edgeLabel;html=1;align=center;verticalAlign=middle;resizable=0;points=[];" parent="cphryxpFYoay0DcUjreO-450" vertex="1" connectable="0">
          <mxGeometry x="-0.5969" y="1" relative="1" as="geometry">
            <mxPoint x="-11" as="offset" />
          </mxGeometry>
        </mxCell>
        <mxCell id="cphryxpFYoay0DcUjreO-453" value="*" style="edgeLabel;html=1;align=center;verticalAlign=middle;resizable=0;points=[];" parent="cphryxpFYoay0DcUjreO-450" vertex="1" connectable="0">
          <mxGeometry x="0.5459" relative="1" as="geometry">
            <mxPoint x="-10" as="offset" />
          </mxGeometry>
        </mxCell>
        <mxCell id="cphryxpFYoay0DcUjreO-454" style="edgeStyle=orthogonalEdgeStyle;rounded=0;orthogonalLoop=1;jettySize=auto;html=1;entryX=0;entryY=0.5;entryDx=0;entryDy=0;endArrow=none;endFill=0;" parent="1" source="cphryxpFYoay0DcUjreO-458" target="cphryxpFYoay0DcUjreO-444" edge="1">
          <mxGeometry relative="1" as="geometry">
            <Array as="points">
              <mxPoint x="115" y="1383" />
            </Array>
          </mxGeometry>
        </mxCell>
        <mxCell id="cphryxpFYoay0DcUjreO-455" value="Меняет" style="edgeLabel;html=1;align=center;verticalAlign=middle;resizable=0;points=[];" parent="cphryxpFYoay0DcUjreO-454" vertex="1" connectable="0">
          <mxGeometry x="-0.4478" relative="1" as="geometry">
            <mxPoint x="1" as="offset" />
          </mxGeometry>
        </mxCell>
        <mxCell id="cphryxpFYoay0DcUjreO-456" value="1" style="edgeLabel;html=1;align=center;verticalAlign=middle;resizable=0;points=[];fontSize=12;" parent="cphryxpFYoay0DcUjreO-454" vertex="1" connectable="0">
          <mxGeometry x="0.8809" y="1" relative="1" as="geometry">
            <mxPoint x="1" y="-16" as="offset" />
          </mxGeometry>
        </mxCell>
        <mxCell id="cphryxpFYoay0DcUjreO-457" value="1" style="edgeLabel;html=1;align=center;verticalAlign=middle;resizable=0;points=[];fontSize=12;" parent="cphryxpFYoay0DcUjreO-454" vertex="1" connectable="0">
          <mxGeometry x="-0.8955" relative="1" as="geometry">
            <mxPoint x="-10" as="offset" />
          </mxGeometry>
        </mxCell>
        <mxCell id="cphryxpFYoay0DcUjreO-458" value="Модификатор" style="swimlane;fontStyle=1;align=center;verticalAlign=middle;childLayout=stackLayout;horizontal=1;startSize=29;horizontalStack=0;resizeParent=1;resizeParentMax=0;resizeLast=0;collapsible=0;marginBottom=0;html=1;whiteSpace=wrap;" parent="1" vertex="1">
          <mxGeometry x="40" y="1095" width="140" height="54" as="geometry" />
        </mxCell>
        <mxCell id="cphryxpFYoay0DcUjreO-459" value="" style="endArrow=none;startArrow=none;endFill=0;startFill=0;endSize=8;html=1;verticalAlign=bottom;labelBackgroundColor=none;strokeWidth=1;rounded=0;exitX=0.75;exitY=0;exitDx=0;exitDy=0;edgeStyle=orthogonalEdgeStyle;entryX=0.5;entryY=1;entryDx=0;entryDy=0;" parent="1" source="cphryxpFYoay0DcUjreO-432" target="cphryxpFYoay0DcUjreO-420" edge="1">
          <mxGeometry width="160" relative="1" as="geometry">
            <mxPoint x="574.75" y="959" as="sourcePoint" />
            <mxPoint x="1085" y="946" as="targetPoint" />
            <Array as="points">
              <mxPoint x="715" y="973" />
              <mxPoint x="940" y="973" />
            </Array>
          </mxGeometry>
        </mxCell>
        <mxCell id="cphryxpFYoay0DcUjreO-460" value="Отображает" style="edgeLabel;html=1;align=center;verticalAlign=middle;resizable=0;points=[];" parent="cphryxpFYoay0DcUjreO-459" vertex="1" connectable="0">
          <mxGeometry x="-0.118" y="1" relative="1" as="geometry">
            <mxPoint x="-13" y="-16" as="offset" />
          </mxGeometry>
        </mxCell>
        <mxCell id="cphryxpFYoay0DcUjreO-461" value="*" style="edgeLabel;html=1;align=center;verticalAlign=middle;resizable=0;points=[];" parent="cphryxpFYoay0DcUjreO-459" vertex="1" connectable="0">
          <mxGeometry x="0.7505" y="2" relative="1" as="geometry">
            <mxPoint x="-15" y="-15" as="offset" />
          </mxGeometry>
        </mxCell>
        <mxCell id="cphryxpFYoay0DcUjreO-462" value="1" style="edgeLabel;html=1;align=center;verticalAlign=middle;resizable=0;points=[];" parent="cphryxpFYoay0DcUjreO-459" vertex="1" connectable="0">
          <mxGeometry x="-0.8095" y="1" relative="1" as="geometry">
            <mxPoint x="21" y="-23" as="offset" />
          </mxGeometry>
        </mxCell>
        <mxCell id="cphryxpFYoay0DcUjreO-464" style="edgeStyle=orthogonalEdgeStyle;rounded=0;orthogonalLoop=1;jettySize=auto;html=1;entryX=0.32;entryY=0.017;entryDx=0;entryDy=0;entryPerimeter=0;endArrow=none;endFill=0;exitX=0.5;exitY=1;exitDx=0;exitDy=0;" parent="1" source="cphryxpFYoay0DcUjreO-478" target="cphryxpFYoay0DcUjreO-434" edge="1">
          <mxGeometry relative="1" as="geometry">
            <mxPoint x="519" y="1200" as="sourcePoint" />
          </mxGeometry>
        </mxCell>
        <mxCell id="cphryxpFYoay0DcUjreO-465" value="Генерирует" style="edgeLabel;html=1;align=center;verticalAlign=middle;resizable=0;points=[];" parent="cphryxpFYoay0DcUjreO-464" vertex="1" connectable="0">
          <mxGeometry x="-0.2547" relative="1" as="geometry">
            <mxPoint x="31" y="-12" as="offset" />
          </mxGeometry>
        </mxCell>
        <mxCell id="cphryxpFYoay0DcUjreO-466" value="1" style="edgeLabel;html=1;align=center;verticalAlign=middle;resizable=0;points=[];fontSize=12;" parent="cphryxpFYoay0DcUjreO-464" vertex="1" connectable="0">
          <mxGeometry x="-0.7837" y="2" relative="1" as="geometry">
            <mxPoint x="-17" y="-8" as="offset" />
          </mxGeometry>
        </mxCell>
        <mxCell id="cphryxpFYoay0DcUjreO-467" value="*" style="edgeLabel;html=1;align=center;verticalAlign=middle;resizable=0;points=[];fontSize=12;" parent="cphryxpFYoay0DcUjreO-464" vertex="1" connectable="0">
          <mxGeometry x="0.8082" y="-2" relative="1" as="geometry">
            <mxPoint x="13" y="-1" as="offset" />
          </mxGeometry>
        </mxCell>
        <mxCell id="cphryxpFYoay0DcUjreO-468" value="" style="triangle;whiteSpace=wrap;html=1;rotation=90;" parent="1" vertex="1">
          <mxGeometry x="371" y="1300" width="9" height="20" as="geometry" />
        </mxCell>
        <mxCell id="cphryxpFYoay0DcUjreO-469" value="ШагРецепта" style="swimlane;fontStyle=1;align=center;verticalAlign=middle;childLayout=stackLayout;horizontal=1;startSize=29;horizontalStack=0;resizeParent=1;resizeParentMax=0;resizeLast=0;collapsible=0;marginBottom=0;html=1;whiteSpace=wrap;fillColor=#d5e8d4;strokeColor=#82b366;" parent="1" vertex="1">
          <mxGeometry x="160" y="1492" width="140" height="89" as="geometry" />
        </mxCell>
        <mxCell id="cphryxpFYoay0DcUjreO-470" value="НомерПоПорядку" style="text;html=1;align=center;verticalAlign=middle;whiteSpace=wrap;rounded=0;" parent="cphryxpFYoay0DcUjreO-469" vertex="1">
          <mxGeometry y="29" width="140" height="30" as="geometry" />
        </mxCell>
        <mxCell id="cphryxpFYoay0DcUjreO-471" value="Количество" style="text;html=1;align=center;verticalAlign=middle;whiteSpace=wrap;rounded=0;" parent="cphryxpFYoay0DcUjreO-469" vertex="1">
          <mxGeometry y="59" width="140" height="30" as="geometry" />
        </mxCell>
        <mxCell id="cphryxpFYoay0DcUjreO-472" value="" style="endArrow=none;dashed=1;html=1;dashPattern=1 3;strokeWidth=2;rounded=0;exitX=1.013;exitY=0.165;exitDx=0;exitDy=0;entryX=1;entryY=0;entryDx=0;entryDy=0;edgeStyle=orthogonalEdgeStyle;curved=1;exitPerimeter=0;" parent="cphryxpFYoay0DcUjreO-469" source="cphryxpFYoay0DcUjreO-469" target="cphryxpFYoay0DcUjreO-471" edge="1">
          <mxGeometry width="50" height="50" relative="1" as="geometry">
            <mxPoint x="150" y="22.25" as="sourcePoint" />
            <mxPoint x="150" y="49" as="targetPoint" />
            <Array as="points">
              <mxPoint x="142" />
              <mxPoint x="220" />
              <mxPoint x="220" y="49" />
              <mxPoint x="140" y="49" />
            </Array>
          </mxGeometry>
        </mxCell>
        <mxCell id="cphryxpFYoay0DcUjreO-473" value="Рецепт не имеет простых атрибутов, потому вводим дополнительную сущность чтобы описать связь рецепта и Ингредиента с количественной составляющей" style="text;align=center;verticalAlign=middle;whiteSpace=wrap;rounded=0;" parent="1" vertex="1">
          <mxGeometry x="390" y="1482" width="180" height="90" as="geometry" />
        </mxCell>
        <mxCell id="cphryxpFYoay0DcUjreO-474" value="" style="endArrow=none;startArrow=diamond;endFill=0;startFill=1;endSize=8;html=1;verticalAlign=bottom;labelBackgroundColor=none;strokeWidth=1;rounded=0;exitX=0.5;exitY=1;exitDx=0;exitDy=0;entryX=0.5;entryY=0;entryDx=0;entryDy=0;" parent="1" source="cphryxpFYoay0DcUjreO-471" target="cphryxpFYoay0DcUjreO-445" edge="1">
          <mxGeometry width="160" relative="1" as="geometry">
            <mxPoint x="-81" y="1590" as="sourcePoint" />
            <mxPoint x="-121" y="1480" as="targetPoint" />
            <Array as="points" />
          </mxGeometry>
        </mxCell>
        <mxCell id="cphryxpFYoay0DcUjreO-475" value="Включает" style="edgeLabel;html=1;align=center;verticalAlign=middle;resizable=0;points=[];" parent="cphryxpFYoay0DcUjreO-474" vertex="1" connectable="0">
          <mxGeometry x="-0.118" y="1" relative="1" as="geometry">
            <mxPoint x="39" as="offset" />
          </mxGeometry>
        </mxCell>
        <mxCell id="cphryxpFYoay0DcUjreO-476" value="1" style="edgeLabel;html=1;align=center;verticalAlign=middle;resizable=0;points=[];" parent="cphryxpFYoay0DcUjreO-474" vertex="1" connectable="0">
          <mxGeometry x="-0.5969" y="1" relative="1" as="geometry">
            <mxPoint x="-11" as="offset" />
          </mxGeometry>
        </mxCell>
        <mxCell id="cphryxpFYoay0DcUjreO-477" value="1" style="edgeLabel;html=1;align=center;verticalAlign=middle;resizable=0;points=[];" parent="cphryxpFYoay0DcUjreO-474" vertex="1" connectable="0">
          <mxGeometry x="0.5459" relative="1" as="geometry">
            <mxPoint x="-10" as="offset" />
          </mxGeometry>
        </mxCell>
        <mxCell id="cphryxpFYoay0DcUjreO-478" value="ПрограммаКофейномуАппарату" style="swimlane;fontStyle=1;align=center;verticalAlign=middle;childLayout=stackLayout;horizontal=1;startSize=29;horizontalStack=0;resizeParent=1;resizeParentMax=0;resizeLast=0;collapsible=0;marginBottom=0;html=1;whiteSpace=wrap;fillColor=#d5e8d4;strokeColor=#82b366;" parent="1" vertex="1">
          <mxGeometry x="474" y="1111" width="200" height="54" as="geometry" />
        </mxCell>
        <mxCell id="cphryxpFYoay0DcUjreO-479" value="" style="endArrow=none;dashed=1;html=1;dashPattern=1 3;strokeWidth=2;rounded=0;exitX=1.013;exitY=0.165;exitDx=0;exitDy=0;entryX=1;entryY=0;entryDx=0;entryDy=0;edgeStyle=orthogonalEdgeStyle;curved=1;exitPerimeter=0;" parent="1" edge="1">
          <mxGeometry width="50" height="50" relative="1" as="geometry">
            <mxPoint x="676" y="1121" as="sourcePoint" />
            <mxPoint x="674" y="1165" as="targetPoint" />
            <Array as="points">
              <mxPoint x="676" y="1106" />
              <mxPoint x="754" y="1106" />
              <mxPoint x="754" y="1155" />
              <mxPoint x="674" y="1155" />
            </Array>
          </mxGeometry>
        </mxCell>
        <mxCell id="cphryxpFYoay0DcUjreO-480" value="Чтобы описать последовательность команд вводим дополнительную сущность" style="text;align=center;verticalAlign=middle;whiteSpace=wrap;rounded=0;" parent="1" vertex="1">
          <mxGeometry x="754" y="1060" width="180" height="90" as="geometry" />
        </mxCell>
        <mxCell id="cphryxpFYoay0DcUjreO-487" value="&lt;span style=&quot;font-weight: 700;&quot;&gt;:&amp;nbsp;&lt;/span&gt;&lt;b&gt;Модификатор&lt;/b&gt;" style="shape=umlLifeline;perimeter=lifelinePerimeter;whiteSpace=wrap;html=1;container=1;dropTarget=0;collapsible=0;recursiveResize=0;outlineConnect=0;portConstraint=eastwest;newEdgeStyle={&quot;curved&quot;:0,&quot;rounded&quot;:0};size=60;" parent="1" vertex="1">
          <mxGeometry x="1090" y="2932" width="139" height="475" as="geometry" />
        </mxCell>
        <mxCell id="snAX9C6S7c4YlDo4RfjO-32" value="" style="html=1;points=[[0,0,0,0,5],[0,1,0,0,-5],[1,0,0,0,5],[1,1,0,0,-5]];perimeter=orthogonalPerimeter;outlineConnect=0;targetShapes=umlLifeline;portConstraint=eastwest;newEdgeStyle={&quot;curved&quot;:0,&quot;rounded&quot;:0};" parent="cphryxpFYoay0DcUjreO-487" vertex="1">
          <mxGeometry x="64.5" y="111" width="10" height="158" as="geometry" />
        </mxCell>
        <mxCell id="snAX9C6S7c4YlDo4RfjO-35" value="" style="html=1;points=[[0,0,0,0,5],[0,1,0,0,-5],[1,0,0,0,5],[1,1,0,0,-5]];perimeter=orthogonalPerimeter;outlineConnect=0;targetShapes=umlLifeline;portConstraint=eastwest;newEdgeStyle={&quot;curved&quot;:0,&quot;rounded&quot;:0};" parent="cphryxpFYoay0DcUjreO-487" vertex="1">
          <mxGeometry x="70" y="209" width="10" height="40" as="geometry" />
        </mxCell>
        <mxCell id="snAX9C6S7c4YlDo4RfjO-36" value="/ ПриментитьМодицифкацию(Рецепт)" style="html=1;align=left;spacingLeft=2;endArrow=block;rounded=0;edgeStyle=orthogonalEdgeStyle;curved=0;rounded=0;fontSize=12;startSize=8;endSize=8;" parent="cphryxpFYoay0DcUjreO-487" target="snAX9C6S7c4YlDo4RfjO-35" edge="1">
          <mxGeometry relative="1" as="geometry">
            <mxPoint x="75" y="189" as="sourcePoint" />
            <Array as="points">
              <mxPoint x="105" y="219" />
            </Array>
          </mxGeometry>
        </mxCell>
        <mxCell id="cphryxpFYoay0DcUjreO-492" value="" style="endArrow=none;startArrow=none;endFill=0;startFill=0;endSize=8;html=1;verticalAlign=bottom;dashed=1;labelBackgroundColor=none;dashPattern=10 10;rounded=0;" parent="1" edge="1">
          <mxGeometry x="-0.025" y="10" width="160" relative="1" as="geometry">
            <mxPoint y="-180" as="sourcePoint" />
            <mxPoint x="1154.5" y="-180" as="targetPoint" />
            <mxPoint as="offset" />
          </mxGeometry>
        </mxCell>
        <mxCell id="cphryxpFYoay0DcUjreO-494" value="&lt;span style=&quot;font-weight: 700;&quot;&gt;РеальныйКофейныйАппарат&lt;/span&gt;" style="shape=umlLifeline;perimeter=lifelinePerimeter;whiteSpace=wrap;html=1;container=1;dropTarget=0;collapsible=0;recursiveResize=0;outlineConnect=0;portConstraint=eastwest;newEdgeStyle={&quot;curved&quot;:0,&quot;rounded&quot;:0};" parent="1" vertex="1">
          <mxGeometry x="1770.2" y="2525" width="220" height="880" as="geometry" />
        </mxCell>
        <mxCell id="cphryxpFYoay0DcUjreO-497" style="edgeStyle=none;curved=0;rounded=0;orthogonalLoop=1;jettySize=auto;html=1;fontSize=12;startSize=8;endSize=8;endArrow=block;endFill=1;" parent="1" source="cphryxpFYoay0DcUjreO-260" target="cphryxpFYoay0DcUjreO-495" edge="1">
          <mxGeometry relative="1" as="geometry" />
        </mxCell>
        <mxCell id="cphryxpFYoay0DcUjreO-498" value="&lt;span style=&quot;font-size: 11px;&quot;&gt;ВыполнитьСуперКомандуНаЯзыкеРеальногоАппаратра(Программа)&lt;/span&gt;" style="edgeLabel;html=1;align=center;verticalAlign=middle;resizable=0;points=[];fontSize=12;" parent="cphryxpFYoay0DcUjreO-497" vertex="1" connectable="0">
          <mxGeometry x="-0.054" relative="1" as="geometry">
            <mxPoint x="84" y="-24" as="offset" />
          </mxGeometry>
        </mxCell>
        <mxCell id="snAX9C6S7c4YlDo4RfjO-1" value="&lt;span style=&quot;font-weight: 700;&quot;&gt;МенеджерНапитков&lt;/span&gt;" style="shape=umlLifeline;perimeter=lifelinePerimeter;whiteSpace=wrap;html=1;container=1;dropTarget=0;collapsible=0;recursiveResize=0;outlineConnect=0;portConstraint=eastwest;newEdgeStyle={&quot;curved&quot;:0,&quot;rounded&quot;:0};" parent="1" vertex="1">
          <mxGeometry x="413" y="2529" width="175" height="880" as="geometry" />
        </mxCell>
        <mxCell id="snAX9C6S7c4YlDo4RfjO-2" value="" style="html=1;points=[[0,0,0,0,5],[0,1,0,0,-5],[1,0,0,0,5],[1,1,0,0,-5]];perimeter=orthogonalPerimeter;outlineConnect=0;targetShapes=umlLifeline;portConstraint=eastwest;newEdgeStyle={&quot;curved&quot;:0,&quot;rounded&quot;:0};" parent="snAX9C6S7c4YlDo4RfjO-1" vertex="1">
          <mxGeometry x="82.5" y="190" width="10" height="180" as="geometry" />
        </mxCell>
        <mxCell id="cphryxpFYoay0DcUjreO-502" value="" style="html=1;points=[[0,0,0,0,5],[0,1,0,0,-5],[1,0,0,0,5],[1,1,0,0,-5]];perimeter=orthogonalPerimeter;outlineConnect=0;targetShapes=umlLifeline;portConstraint=eastwest;newEdgeStyle={&quot;curved&quot;:0,&quot;rounded&quot;:0};" parent="snAX9C6S7c4YlDo4RfjO-1" vertex="1">
          <mxGeometry x="92" y="321" width="10" height="40" as="geometry" />
        </mxCell>
        <mxCell id="cphryxpFYoay0DcUjreO-503" value="&lt;span style=&quot;text-wrap-mode: wrap; background-color: rgb(251, 251, 251);&quot;&gt;/ ЗаполнитьПоСпецификации(&lt;/span&gt;&lt;span style=&quot;font-size: 11px; text-align: center; background-color: rgb(251, 251, 251);&quot;&gt;Напиток&lt;/span&gt;&lt;span style=&quot;font-size: 11px; text-align: center; text-wrap: wrap; background-color: rgb(251, 251, 251);&quot;&gt;Название&lt;/span&gt;&lt;span style=&quot;text-wrap-mode: wrap; background-color: rgb(251, 251, 251);&quot;&gt;)&lt;/span&gt;" style="html=1;align=left;spacingLeft=2;endArrow=block;rounded=0;edgeStyle=orthogonalEdgeStyle;curved=0;rounded=0;fontSize=12;startSize=8;endSize=8;" parent="snAX9C6S7c4YlDo4RfjO-1" edge="1">
          <mxGeometry x="-0.0118" y="20" relative="1" as="geometry">
            <mxPoint x="95" y="301" as="sourcePoint" />
            <Array as="points">
              <mxPoint x="125" y="331" />
            </Array>
            <mxPoint as="offset" />
            <mxPoint x="100" y="331" as="targetPoint" />
          </mxGeometry>
        </mxCell>
        <mxCell id="snAX9C6S7c4YlDo4RfjO-3" value="" style="endArrow=block;startArrow=none;endFill=1;startFill=0;endSize=8;html=1;verticalAlign=bottom;labelBackgroundColor=none;strokeWidth=1;rounded=0;edgeStyle=orthogonalEdgeStyle;" parent="1" source="cphryxpFYoay0DcUjreO-504" edge="1">
          <mxGeometry width="160" relative="1" as="geometry">
            <mxPoint x="238" y="2719" as="sourcePoint" />
            <mxPoint x="493" y="2719" as="targetPoint" />
            <Array as="points">
              <mxPoint x="361" y="2719" />
              <mxPoint x="493" y="2720" />
            </Array>
          </mxGeometry>
        </mxCell>
        <mxCell id="snAX9C6S7c4YlDo4RfjO-4" value="Напиток = СоздатьНапиток(&lt;span style=&quot;background-color: rgb(251, 251, 251); font-size: 11px;&quot;&gt;Напиток&lt;/span&gt;&lt;span style=&quot;text-wrap: wrap; background-color: rgb(251, 251, 251); font-size: 11px;&quot;&gt;Название&lt;/span&gt;)" style="edgeLabel;html=1;align=center;verticalAlign=middle;resizable=0;points=[];fontSize=11;" parent="snAX9C6S7c4YlDo4RfjO-3" vertex="1" connectable="0">
          <mxGeometry x="-0.2296" y="1" relative="1" as="geometry">
            <mxPoint x="23" y="-13" as="offset" />
          </mxGeometry>
        </mxCell>
        <mxCell id="cphryxpFYoay0DcUjreO-495" value="" style="html=1;points=[[0,0,0,0,5],[0,1,0,0,-5],[1,0,0,0,5],[1,1,0,0,-5]];perimeter=orthogonalPerimeter;outlineConnect=0;targetShapes=umlLifeline;portConstraint=eastwest;newEdgeStyle={&quot;curved&quot;:0,&quot;rounded&quot;:0};" parent="1" vertex="1">
          <mxGeometry x="1875.2" y="3356" width="10" height="40" as="geometry" />
        </mxCell>
        <mxCell id="snAX9C6S7c4YlDo4RfjO-5" value="" style="endArrow=block;startArrow=none;endFill=1;startFill=0;endSize=8;html=1;verticalAlign=bottom;labelBackgroundColor=none;strokeWidth=1;rounded=0;edgeStyle=orthogonalEdgeStyle;" parent="1" source="snAX9C6S7c4YlDo4RfjO-2" edge="1">
          <mxGeometry width="160" relative="1" as="geometry">
            <mxPoint x="512" y="2782" as="sourcePoint" />
            <mxPoint x="757" y="2776" as="targetPoint" />
            <Array as="points">
              <mxPoint x="718" y="2776" />
              <mxPoint x="718" y="2776" />
            </Array>
          </mxGeometry>
        </mxCell>
        <mxCell id="snAX9C6S7c4YlDo4RfjO-30" value="Создать" style="edgeLabel;html=1;align=center;verticalAlign=middle;resizable=0;points=[];fontSize=12;" parent="snAX9C6S7c4YlDo4RfjO-5" vertex="1" connectable="0">
          <mxGeometry x="0.3695" y="-4" relative="1" as="geometry">
            <mxPoint x="-25" y="-13" as="offset" />
          </mxGeometry>
        </mxCell>
        <mxCell id="snAX9C6S7c4YlDo4RfjO-12" value="&lt;b&gt;МенеджерНапитков&lt;/b&gt;&lt;br&gt;{фабрика}" style="swimlane;fontStyle=0;align=center;verticalAlign=top;childLayout=stackLayout;horizontal=1;startSize=55;horizontalStack=0;resizeParent=1;resizeParentMax=0;resizeLast=0;collapsible=0;marginBottom=0;html=1;whiteSpace=wrap;" parent="1" vertex="1">
          <mxGeometry x="173" y="4113" width="290" height="143" as="geometry" />
        </mxCell>
        <mxCell id="snAX9C6S7c4YlDo4RfjO-13" value="attributes" style="text;html=1;strokeColor=none;fillColor=none;align=center;verticalAlign=middle;spacingLeft=4;spacingRight=4;overflow=hidden;rotatable=0;points=[[0,0.5],[1,0.5]];portConstraint=eastwest;whiteSpace=wrap;" parent="snAX9C6S7c4YlDo4RfjO-12" vertex="1">
          <mxGeometry y="55" width="290" height="20" as="geometry" />
        </mxCell>
        <mxCell id="snAX9C6S7c4YlDo4RfjO-14" value="" style="line;strokeWidth=1;fillColor=none;align=left;verticalAlign=middle;spacingTop=-1;spacingLeft=3;spacingRight=3;rotatable=0;labelPosition=right;points=[];portConstraint=eastwest;" parent="snAX9C6S7c4YlDo4RfjO-12" vertex="1">
          <mxGeometry y="75" width="290" height="8" as="geometry" />
        </mxCell>
        <mxCell id="snAX9C6S7c4YlDo4RfjO-15" value="operations" style="text;html=1;strokeColor=none;fillColor=none;align=center;verticalAlign=middle;spacingLeft=4;spacingRight=4;overflow=hidden;rotatable=0;points=[[0,0.5],[1,0.5]];portConstraint=eastwest;whiteSpace=wrap;" parent="snAX9C6S7c4YlDo4RfjO-12" vertex="1">
          <mxGeometry y="83" width="290" height="20" as="geometry" />
        </mxCell>
        <mxCell id="snAX9C6S7c4YlDo4RfjO-16" value="&lt;span style=&quot;font-size: 11px; text-align: center; text-wrap-mode: nowrap;&quot;&gt;СоздатьНапиток(&lt;/span&gt;&lt;span style=&quot;font-size: 11px; text-align: center; text-wrap-mode: nowrap; background-color: rgb(251, 251, 251);&quot;&gt;Напиток&lt;/span&gt;&lt;span style=&quot;font-size: 11px; text-align: center; text-wrap-style: initial; background-color: rgb(251, 251, 251);&quot;&gt;Название&lt;/span&gt;&lt;span style=&quot;font-size: 11px; text-align: center; text-wrap-mode: nowrap;&quot;&gt;)&lt;/span&gt;" style="text;html=1;strokeColor=none;fillColor=none;align=left;verticalAlign=middle;spacingLeft=4;spacingRight=4;overflow=hidden;rotatable=0;points=[[0,0.5],[1,0.5]];portConstraint=eastwest;whiteSpace=wrap;" parent="snAX9C6S7c4YlDo4RfjO-12" vertex="1">
          <mxGeometry y="103" width="290" height="20" as="geometry" />
        </mxCell>
        <mxCell id="snAX9C6S7c4YlDo4RfjO-17" value="/ ЗаполнитьПоСпецификации()" style="text;html=1;strokeColor=none;fillColor=none;align=left;verticalAlign=middle;spacingLeft=4;spacingRight=4;overflow=hidden;rotatable=0;points=[[0,0.5],[1,0.5]];portConstraint=eastwest;whiteSpace=wrap;" parent="snAX9C6S7c4YlDo4RfjO-12" vertex="1">
          <mxGeometry y="123" width="290" height="20" as="geometry" />
        </mxCell>
        <mxCell id="snAX9C6S7c4YlDo4RfjO-19" value="" style="endArrow=open;startArrow=none;endFill=0;startFill=0;endSize=8;html=1;verticalAlign=bottom;labelBackgroundColor=none;rounded=0;fontSize=12;curved=1;dashed=1;exitX=0.5;exitY=0;exitDx=0;exitDy=0;" parent="1" source="snAX9C6S7c4YlDo4RfjO-12" edge="1">
          <mxGeometry width="160" relative="1" as="geometry">
            <mxPoint x="347" y="4094" as="sourcePoint" />
            <mxPoint x="424" y="4012" as="targetPoint" />
          </mxGeometry>
        </mxCell>
        <mxCell id="snAX9C6S7c4YlDo4RfjO-20" value="&amp;lt;&amp;lt;create&amp;gt;&amp;gt;" style="edgeLabel;html=1;align=center;verticalAlign=middle;resizable=0;points=[];fontSize=12;" parent="snAX9C6S7c4YlDo4RfjO-19" vertex="1" connectable="0">
          <mxGeometry x="0.0757" relative="1" as="geometry">
            <mxPoint x="1" as="offset" />
          </mxGeometry>
        </mxCell>
        <mxCell id="snAX9C6S7c4YlDo4RfjO-7" value="&lt;span style=&quot;text-wrap-mode: wrap; background-color: rgb(251, 251, 251);&quot;&gt;Рецепт = Напиток.Рецепт()&lt;/span&gt;" style="html=1;align=left;spacingLeft=2;endArrow=block;rounded=0;edgeStyle=orthogonalEdgeStyle;curved=0;rounded=0;fontSize=12;startSize=8;endSize=8;endFill=1;" parent="1" source="cphryxpFYoay0DcUjreO-504" edge="1">
          <mxGeometry x="-0.8219" y="17" relative="1" as="geometry">
            <mxPoint x="236" y="3046" as="sourcePoint" />
            <Array as="points">
              <mxPoint x="922" y="3042" />
              <mxPoint x="922" y="3042" />
            </Array>
            <mxPoint as="offset" />
            <mxPoint x="1151.5" y="3042" as="targetPoint" />
          </mxGeometry>
        </mxCell>
        <mxCell id="snAX9C6S7c4YlDo4RfjO-34" value="&lt;span style=&quot;text-wrap-mode: wrap; background-color: rgb(251, 251, 251);&quot;&gt;Рецепт = Напиток.Рецепт()&lt;/span&gt;" style="html=1;align=left;spacingLeft=2;endArrow=block;rounded=0;edgeStyle=orthogonalEdgeStyle;curved=0;rounded=0;fontSize=12;startSize=8;endSize=8;endFill=1;" parent="1" source="snAX9C6S7c4YlDo4RfjO-32" edge="1">
          <mxGeometry x="-0.0905" y="-19" relative="1" as="geometry">
            <mxPoint x="-106" y="3093" as="sourcePoint" />
            <Array as="points">
              <mxPoint x="1070" y="3093" />
              <mxPoint x="1070" y="3093" />
            </Array>
            <mxPoint x="1" as="offset" />
            <mxPoint x="817.5" y="3093" as="targetPoint" />
          </mxGeometry>
        </mxCell>
      </root>
    </mxGraphModel>
  </diagram>
</mxfile>
